<?xml version="1.0" standalone="no"?>
<!DOCTYPE svg PUBLIC "-//W3C//DTD SVG 1.1//EN" "http://www.w3.org/Graphics/SVG/1.1/DTD/svg11.dtd" >
<svg xmlns="http://www.w3.org/2000/svg">
<metadata>Generated by IcoMoon</metadata>
<defs>
<font id="icomoon" horiz-adv-x="1024">
<font-face units-per-em="1024" ascent="960" descent="-64" />
<missing-glyph horiz-adv-x="1024" />
<glyph unicode="&#x20;" horiz-adv-x="512" d="" />
<glyph unicode="&#xe900;" glyph-name="clip" d="M629.92 927.84c-43.080-4.319-85.697-18.698-121.84-52.24l-0.16-0.080c-0.057-0.054-0.102-0.106-0.16-0.16l-456.081-419.36c-12.207-11.264-19.825-27.343-19.825-45.201 0-16.067 6.167-30.694 16.264-41.642l-0.039 0.042c11.267-12.232 27.362-19.869 45.24-19.869 16.048 0 30.659 6.153 41.603 16.228l-0.043-0.039 456.32 419.68c0.262 0.192 0.366 0.271 0.469 0.35l-0.15-0.11c18.742 17.469 80.363 24.069 141.84 13.28 125.344-22.076 181.973-165.906 96.24-255.52-1.57-1.357-3.468-3.009-5.92-5.12-5.578-4.802-12.999-11.16-20.4-17.52s-14.825-12.731-20.48-17.6c-2.827-2.434-5.188-4.467-6.96-6-0.886-0.767-1.617-1.375-2.24-1.92s3.413 3.653-3.84-3.6l-376.239-376.64c-32.419-32.453-83.987-31.702-115.84 2.16-29.817 32.406-28.936 80.871 2.080 111.92l357.92 358.24c11.091 11.114 17.95 26.456 17.95 43.399 0 16.984-6.892 32.359-18.031 43.48l-0.001 0.001c-11.118 11.116-26.476 17.991-43.44 17.991s-32.322-6.875-43.44-17.991v0l-357.838-358.32c-76.875-76.957-79.152-202.48-5.36-282.32 0.107-0.107 0.211-0.212 0.316-0.315l0.004-0.004c78.189-83.495 211.929-85.836 292.64-5.040l375.76 376.080c1.613 1.397 3.931 3.359 6.72 5.76 5.578 4.802 12.999 11.16 20.4 17.52s14.825 12.731 20.48 17.6c2.827 2.434 5.188 4.467 6.96 6 0.886 0.767 1.617 1.455 2.24 2s-3.413-3.733 3.84 3.52c0.272 0.267 0.533 0.528 0.791 0.791l0.009 0.009c152.484 158.009 50.981 424.799-162.96 462.479-0.012 0-0.027 0-0.041 0s-0.029 0-0.043 0h0.002c-37.886 6.659-81.514 12.412-124.718 8.080z" />
<glyph unicode="&#xe901;" glyph-name="shopping-cart" horiz-adv-x="1126" d="M34.133 951.467c-14.138 0-25.6-11.462-25.6-25.6v0c0-14.138 11.462-25.6 25.6-25.6v0h147.067c19.181 0 35.748-12.552 41-31l35.667-125.2 131.2-460.733c11.453-40.227 48.443-68.133 90.267-68.133h547.8c14.138 0 25.6 11.462 25.6 25.6v0c0 14.138-11.462 25.6-25.6 25.6v0h-547.8c-19.18 0-35.815 12.552-41.067 31l-14.4 50.6h500.867c37.915 0 72.249 22.959 86.733 58l99.6 241c25.197 60.965-20.764 129.733-86.733 129.733h-722.467l-30.4 106.6c-11.453 40.226-48.441 68.133-90.267 68.133zM316.4 725.533h707.933c31.296 0 51.353-30.080 39.4-59l-99.6-240.933c-6.623-16.023-22.060-26.4-39.4-26.4h-515.4zM530.6 163.933c-58.571 0-106.4-47.367-106.4-104.867 0-57.502 47.83-104.867 106.4-104.867s106.4 47.365 106.4 104.867c0 57.5-47.829 104.867-106.4 104.867zM530.6 112.733c31.37 0 55.2-24.325 55.2-53.667 0-29.347-23.828-53.667-55.2-53.667s-55.2 24.32-55.2 53.667c0 29.342 23.83 53.667 55.2 53.667zM892.333 163.933c-58.571 0-106.4-47.367-106.4-104.867 0-57.502 47.83-104.867 106.4-104.867s106.4 47.365 106.4 104.867c0 57.5-47.829 104.867-106.4 104.867zM892.333 112.733c31.37 0 55.2-24.325 55.2-53.667 0-29.347-23.828-53.667-55.2-53.667s-55.2 24.32-55.2 53.667c0 29.342 23.83 53.667 55.2 53.667z" />
<glyph unicode="&#xe902;" glyph-name="vertical-logo" horiz-adv-x="5146" d="M1209.525 692.922c205.333 0 343.702-141.989 343.702-351.416v-66.103h-514.828c7.129-95.547 74.193-167.253 176.811-167.253 99.824 0 152.629 54.8 176.813 103.999l146.847-84.341c-48.467-73.132-131.237-171.528-320.864-171.528-211.117 0-363.646 157.473-363.646 373.925 0.095 210.849 146.941 362.717 355.165 362.717zM1370.729 393.46c-9.925 91.367-69.858 147.595-162.553 147.595-101.268 0-156.866-59.077-168.235-147.595h330.789zM1781.503 673.256l174.017-542.604h17.151l174.020 542.604h193.964l-243.972-697.226h-265.269l-243.875 697.226h193.964zM2617.011 673.262v-103.999h19.947c29.959 67.529 88.458 115.302 186.841 115.302 91.241 0 158.3-47.774 188.258-118.057h19.955c31.403 64.68 88.458 118.057 201.098 118.057 129.785 0 233.866-96.973 233.866-241.814v-466.716h-179.725v452.661c0 64.68-46.999 101.245-115.528 101.245-74.174 0-128.341-42.17-128.341-129.357v-424.548h-179.699v452.661c0 64.68-47.025 101.245-115.528 101.245-74.201 0-128.347-42.17-128.347-129.357v-424.548h-179.704v697.226h176.908zM3959.545 692.922c188.285 0 320.853-108.274 320.853-276.953v-440.029h-176.811v98.396h-19.929c-22.843-46.445-72.757-118.057-222.497-118.057-159.744 0-265.269 84.341-265.269 217.878 0 111.028 98.383 188.34 233.866 202.395l270.94 29.538v22.51c0 64.68-48.469 120.906-148.296 120.906s-156.856-56.225-193.956-134.963l-145.487 87.19c55.585 80.161 158.3 191.189 346.585 191.189zM3905.3 102.544c125.453 0 195.4 73.132 195.4 168.679v16.907l-216.799-25.264c-67.059-8.452-99.827-37.99-99.827-78.735 0-47.868 41.354-81.587 121.226-81.587zM4627.062 673.254v-112.454h19.955c28.514 64.68 94.129 123.662 223.915 123.662 156.882 0 275.298-111.030 275.298-292.436v-416.093h-179.699v399.187c0 96.973-57.055 154.624-159.77 154.624-115.528 0-176.811-70.283-176.811-193.943v-359.868h-179.699v697.226l176.811 0.095zM342.255 960h-342.255v-168.679h345.146c161.107 0 219.593-81.49 219.593-224.907v-196.792c0-143.415-58.486-224.905-219.593-224.905h-345.146v-168.679h342.255c268.157 0 410.763 130.686 410.763 399.187v185.586c0 268.501-142.606 399.189-410.763 399.189zM188.279 577.436h-188.279v-220.252h188.279v220.252z" />
<glyph unicode="&#xe903;" horiz-adv-x="1096" d="M684.265-1.188c-7.421-8.412-13.702-11.284-24.709-13.724l-167.194-37.234c-7.968-1.793-15.538 4.28-15.538 12.494v175.517c0 12.594 3.513 25.801 11.731 35.358l195.709-172.411z" />
<glyph unicode="&#xe904;" horiz-adv-x="1096" d="M1084.25 455.692l-399.976-456.877-195.709 172.411 383.568 445.099c13.747 16.029 37.504 18.916 54.736 6.67l150.359-107.222c19.622-14.037 22.91-41.913 7.022-60.081z" />
<glyph unicode="&#xe905;" horiz-adv-x="1096" d="M452.659 955.6c-0.558-0.042-0.987-0.084-1.414-0.133l0.167 0.016c-12.786-1.306-26.32-8.093-35.059-17.106-8.203-8.463-14.449-20.554-16.259-32.494 0.034 0.197 0.025 0.157 0.017 0.117l-0.041-0.235-9.553-64.682c-28.322-7.523-55.338-18.098-81.012-31.718l-50.399 41.059c-0.585 0.481-1.251 0.991-1.936 1.478l-0.111 0.075c-10.341 7.263-24.928 11.642-38.471 10.259-11.221-1.146-22.476-5.608-31.388-12.212-0.469-0.346-0.836-0.632-1.198-0.924l0.069 0.054c-56.413-45.3-101.018-100.813-132.871-165.482-0.251-0.483-0.575-1.187-0.876-1.903l-0.089-0.238c-4.592-11.092-5.608-24.363-3.129-35.835 2.896-13.548 11.989-26.605 22.753-34.165l-2.071 1.553 50.965-41.506c-7.34-28.279-11.597-57.043-12.753-86.259l-60.824-24.988 2.541 0.941c-12.477-4.073-25.236-14.155-31.859-26.141-5.577-10.092-8.593-23.079-7.341-35.318 0.089-0.908 0.189-1.657 0.311-2.398l-0.029 0.21c11.733-71.165 38.392-137.262 79.271-196.918 0.329-0.49 0.585-0.85 0.846-1.205l-0.070 0.1c6.593-8.887 16.143-16.504 26.635-20.847 0.003 0 0.008 0 0.012 0s0.008 0 0.012 0h-0.001c12.355-5.11 27.584-5.267 39.694-1.271 1.071 0.349 1.873 0.652 2.662 0.983l-0.238-0.089 60.141 24.706c20.65-20.49 43.444-38.459 68.376-53.859l-9.553-64.541c-1.873-12.355 0.753-25.617 6.071-35.976 5.753-11.203 16.635-21.647 28.753-26.659 0.111-0.055 0.469-0.191 0.83-0.321l0.252-0.079c9.843-3.711 20.093-6.209 30.871-8.941s21.662-5.413 25.953-6.659c3.015-0.908 6.481-1.431 10.068-1.431 16.37 0 30.198 10.884 34.643 25.81l0.065 0.256c0.908 3.015 1.431 6.481 1.431 10.068 0 16.37-10.884 30.198-25.81 34.643l-0.256 0.065c-7.911 2.297-18.094 4.699-28.329 7.294-4.993 1.266-7.118 1.997-11.294 3.176l11.176 75.529c0.248 1.589 0.389 3.423 0.389 5.289 0 13.785-7.717 25.768-19.067 31.864l-0.193 0.095c-34.634 18.306-64.206 41.603-89.412 70.424-6.66 7.59-16.38 12.356-27.213 12.356-4.951 0-9.67-0.996-13.967-2.797l0.238 0.089-68.871-28.306c-29.643 45.486-49.334 94.395-59.6 147.388l70.965 29.176c13.262 5.553 22.409 18.425 22.409 33.433 0 0.29-0.003 0.58-0.010 0.868l0.001-0.043c-0.898 38.675 4.668 76.069 16.706 112.871 1.137 3.357 1.793 7.223 1.793 11.242 0 11.278-5.165 21.349-13.258 27.977l-0.064 0.051-59.412 48.353c25.185 47.739 58.16 88.869 99.718 123.859l57.694-47.012c6.17-5.057 14.142-8.123 22.83-8.123 7.095 0 13.712 2.044 19.295 5.575l-0.148-0.088c32.486 20.279 67.541 34.055 105.976 41.529 15.011 3 26.534 14.975 28.822 29.988l0.025 0.201 11.129 75.294c53.984 2.15 106.103-5.544 157.153-23.247l-11.129-75.294c-0.248-1.589-0.389-3.423-0.389-5.289 0-13.785 7.717-25.768 19.067-31.864l0.193-0.095c34.635-18.308 64.206-41.627 89.412-70.447 6.659-7.58 16.373-12.338 27.197-12.338 4.957 0 9.681 0.998 13.982 2.804l-0.238-0.089 70.165 28.824c0.663-0.857 3.713-5.194 3.224-4.471-1.408 2.082-0.694 0.974 4.353-9.459 5.985-12.177 18.3-20.41 32.538-20.41 5.728 0 11.144 1.332 15.957 3.704l-0.212-0.094c12.177 5.985 20.41 18.3 20.41 32.538 0 5.728-1.332 11.144-3.704 15.957l0.094-0.212c-4.823 9.971-5.727 12.78-9.576 18.471s-3.453 4.33-9.529 13.2c-0.333 0.481-0.596 0.841-0.865 1.196l0.065-0.090c-6.593 8.883-16.134 16.527-26.635 20.871-12.353 5.11-27.586 5.267-39.694 1.271-1.071-0.349-1.873-0.652-2.662-0.983l0.238 0.089-60.118-24.706c-20.65 20.493-43.467 38.457-68.4 53.859l9.553 64.588c1.859 12.343-0.757 25.581-6.071 35.929-5.752 11.203-16.657 21.622-28.776 26.635-0.094 0.051-0.428 0.186-0.765 0.316l-0.247 0.084c-68.103 25.743-139.136 36.233-211.718 31.341zM512.306 676.729c-45.483-2.173-88.814-17.767-126.753-45.882-50.626-37.516-82.612-90.771-91.788-152.753-9.182-62.042 6.066-122.236 43.576-172.8 0.004 0 0.008 0 0.012 0s0.008 0 0.013 0h-0.001c17.154-23.091 37.411-42.559 60.518-57.576 5.557-3.659 12.371-5.838 19.695-5.838 12.638 0 23.761 6.487 30.221 16.313l0.084 0.136c3.659 5.557 5.838 12.371 5.838 19.695 0 12.638-6.487 23.761-16.313 30.221l-0.137 0.084c-15.456 10.045-29.33 23.175-41.882 40.071-27.444 37.007-36.783 74.063-30.118 119.106 6.666 45.022 26.323 77.832 63.318 105.247 37.033 27.444 74.132 36.81 119.224 30.141 45.040-6.665 77.901-26.37 105.341-63.318 6.659-8.903 17.175-14.604 29.023-14.604 8.114 0 15.604 2.674 21.636 7.189l-0.094-0.068c8.903 6.659 14.604 17.175 14.604 29.023 0 8.114-2.674 15.604-7.189 21.636l0.068-0.094c-37.537 50.541-90.779 82.564-152.801 91.741-15.516 2.295-30.933 3.054-46.094 2.329z" />
<glyph unicode="&#xe906;" horiz-adv-x="1382" d="M403.2 396.8c109.573 0 198.4 91.692 198.4 204.8s-88.827 204.8-198.4 204.8c-109.573 0-198.4-91.692-198.4-204.8s88.827-204.8 198.4-204.8z" />
<glyph unicode="&#xe907;" horiz-adv-x="1382" d="M803.721 66.237c-26.245 115.66-118.821 266.563-255.616 266.563-144.908 0-144.908 0-144.908 0s0 0-144.908 0c-136.796 0-229.371-150.903-255.617-266.563-15.111-66.801 35.79-130.237 103.71-130.237h593.31c68.398 0 119.14 63.437 104.028 130.237z" />
<glyph unicode="&#xe908;" horiz-adv-x="1382" d="M1000.2 960c-104.246 0-189.625-85.539-189.625-190.125s85.379-190.15 189.625-190.15 189.65 85.563 189.65 190.15c0 104.586-85.404 190.125-189.65 190.125zM1000.2 883.2c62.614 0 112.85-50.119 112.85-113.325 0-63.208-50.235-113.35-112.85-113.35s-112.825 50.142-112.825 113.35c0 63.206 50.211 113.325 112.825 113.325z" />
<glyph unicode="&#xe909;" horiz-adv-x="1382" d="M863.45 514.275c-54.028 0-97.555-25.413-128.050-51.7v0.026c-7.269-6.266-13.706-12.494-19.3-18.35l-28.75-30.1 32.325-26.25c25.918-21.047 55.269-49.143 83.15-85.7l0.050-0.050 0.026-0.050c37.759-49.226 60.415-97.576 74.175-135.3l9.2-25.25h393.95c63.484 0 111.928 60.489 97.9 122.35v0.026c-12.589 55.258-39.923 116.34-81.475 165.925v0.026c-41.473 49.483-96.417 84.4-159.7 84.4h-272.719zM863.45 437.475h273.5c35.336 0 68.941-18.907 100.825-56.95 31.806-37.955 55.632-90.548 65.45-133.6 3.482-15.357-6.945-28.575-23-28.575h-342.175c-16.19 39.097-38.245 83.593-74.225 130.5-20.196 26.47-40.73 47.838-60.85 67 18.126 12.123 37.954 21.625 60.475 21.625z" />
<glyph unicode="&#xe90a;" horiz-adv-x="953" d="M814.515 607.379c-4.283 38.841 26.862 87.627 11.107 122.475-15.899 35.21-73.252 44.14-99.242 72.745-25.628 28.313-28.967 86.32-62.871 105.631-32.742 18.731-84.142-7.623-122.984 0.508-38.913 8.059-75.576 52.634-113.037 48.496-38.84-4.211-64.976-56.119-99.824-71.873-35.139-15.899-91.33-1.307-119.934-27.225-28.314-25.701-19.166-82.835-38.551-116.74-18.658-32.742-72.889-53.722-80.948-92.564-8.059-38.913 33.322-79.713 37.389-117.175 4.283-38.767-26.79-87.627-11.036-122.475 15.899-35.137 73.181-44.067 99.17-72.671 25.7-28.314 28.967-86.321 62.871-105.705 32.742-18.658 84.142 7.624 123.055-0.435 38.841-8.058 75.503-52.707 112.965-48.568 38.84 4.283 64.976 56.119 99.824 71.873 35.139 15.899 91.33 1.306 119.934 27.224 28.314 25.7 19.166 82.836 38.551 116.813 18.658 32.669 72.889 53.651 80.948 92.564 8.058 38.84-33.324 79.641-37.389 117.102zM470.395 357.491c-111.948 0-220.558 108.61-220.558 220.558 0 111.876 108.61 220.486 220.558 220.486s220.486-108.61 220.486-220.486c0-111.948-108.538-220.558-220.486-220.558z" />
<glyph unicode="&#xe90b;" horiz-adv-x="953" d="M578.253 663.425c-6.316 6-14.877 9.691-24.299 9.691-10.085 0-19.183-4.228-25.617-11.008l-0.015-0.016-76.391-80.575-33.678 35.287c-6.443 6.746-15.507 10.939-25.552 10.939-9.461 0-18.053-3.721-24.393-9.78l0.013 0.013c-6.739-6.442-10.927-15.502-10.927-25.54 0-9.467 3.726-18.064 9.79-24.404l-0.012 0.013 84.943-88.989 127.471 134.46c5.993 6.315 9.679 14.871 9.679 24.287 0 10.080-4.223 19.173-10.997 25.607l-0.015 0.014z" />
<glyph unicode="&#xe90c;" horiz-adv-x="953" d="M133.287 317.862c-9.27-2.359-16.904-8.142-21.636-15.891l-0.088-0.155-102.069-169.425c-24.353-40.307 9.816-95.139 56.713-91.103l81.586 7.034 22.138-67.54c0.004-0.011 0.019-0.012 0.024-0.024v-0.024c14.952-45.712 81.213-54.455 107.586-14.23l105.034 160.069c3.624 5.456 5.783 12.157 5.783 19.363 0 12.284-6.273 23.104-15.791 29.429l-0.13 0.081c-5.459 3.631-12.167 5.793-19.379 5.793-12.289 0-23.111-6.278-29.436-15.801l-0.081-0.13-93.195-142.023-16.736 50.966c-9.373 28.585-37.706 47.299-67.632 44.805h-0.046l-65.449-5.654 91.563 151.954c3.185 5.201 5.072 11.497 5.072 18.233 0 12.772-6.781 23.961-16.94 30.161l-0.155 0.088c-5.198 3.181-11.49 5.065-18.222 5.065-3.023 0-5.958-0.38-8.758-1.095l0.244 0.053zM151.816 48.69h0.138l-0.115-0.024c-0.010-0.001-0.013 0.024-0.024 0.024z" />
<glyph unicode="&#xe90d;" horiz-adv-x="953" d="M793.517 313.839c-10.314-6.289-17.095-17.477-17.095-30.249 0-6.737 1.886-13.032 5.16-18.388l-0.088 0.155 91.563-151.954-65.494 5.655c-29.926 2.494-58.259-16.218-67.632-44.805l-16.713-50.989-93.218 142.046c-6.406 9.654-17.228 15.931-29.517 15.931-7.213 0-13.92-2.163-19.51-5.875l0.13 0.081c-9.648-6.407-15.921-17.226-15.921-29.51 0-7.206 2.158-13.908 5.864-19.494l-0.081 0.131 105.034-160.069c26.373-40.225 92.635-31.482 107.586 14.23v0.024l22.161 67.563 81.586-7.034c46.897-4.036 81.066 50.796 56.713 91.103l-102.046 169.425c-6.289 10.314-17.477 17.095-30.249 17.095-6.737 0-13.032-1.886-18.388-5.16l0.155 0.088zM801.586 48.69h0.138c-0.010 0.001-0.013-0.024-0.024-0.024z" />
<glyph unicode="&#xe90e;" horiz-adv-x="871" d="M717.385 102.347v-138.1c0-0.605-0.519-1.13-1.124-1.13h-565.655c-0.606 0-1.126 0.525-1.126 1.13v138.1c0 0.612 0.519 1.137 1.126 1.137h565.655c0.605 0 1.124-0.525 1.124-1.137zM630.874 14.688v26.092h-394.883v-26.092h394.883z" />
<glyph unicode="&#xe90f;" horiz-adv-x="871" d="M446.935 684.669h177.438c-2.858-94.618-36.458-145.232-52.218-163.93l-38.016 37.917c24.767 25.742 23.988 55.832 23.901 57.31-0.26 6.957-5.976 12.523-12.99 12.523h-98.114v56.18z" />
<glyph unicode="&#xe910;" horiz-adv-x="871" d="M513.529 542.479l39.575-39.482c-28.144-21.307-110.585-70.268-216.060-9.479-29.789 17.219-52.737 39.656-68.498 66.789l51.266 38.7c19.311-49.657 56.635-75.834 108.766-75.834 34.898 0 63.302 6.522 84.951 19.306z" />
<glyph unicode="&#xe911;" horiz-adv-x="871" d="M743.351 883.731c32.735-7.74 123.485-40.265 123.485-163.234 0-129.404-117.86-156.538-150.681-161.582-7.361-19.741-16.191-38.699-26.325-56.353-34.116-59.484-88.846-109.142-162.8-147.493-30.049-15.567-47.542-40.004-47.889-67.052v-1.563c0-46.266 57.414-117.58 112.23-156.885h3.031v-2.174l-14.202-21.916 1.212-0.871v-1.13h-295.903v1.217l1.386 0.958-14.375 21.743v2.174h2.944c54.816 39.304 112.23 110.619 112.23 156.885v1.735c-0.346 26.875-17.839 51.312-47.888 66.879-73.867 38.351-128.684 87.922-162.803 147.493-10.132 17.654-18.878 36.613-26.325 56.353-32.821 5.044-150.679 32.178-150.679 161.582 0 122.969 90.84 155.494 123.488 163.234v52.701c0 13.045 10.564 23.568 23.468 23.568h572.923c12.993 0 23.472-10.523 23.472-23.568v-52.701zM840.857 720.497c0 99.228-67.198 128.448-97.506 136.536v-146.711c0-42.613-5.978-84.009-17.667-123.317 37.582 8.088 115.173 36.613 115.173 133.492zM717.372 710.322v223.588h-567.905v-223.588c0-47.135 7.707-92.618 22.775-135.058 7.447-21.045 16.627-41.134 27.278-59.658 31.608-55.136 82.787-101.402 152.238-137.318 38.796-20.176 61.397-52.962 61.917-89.833v-2.001c0-48.527-45.204-112.015-96.383-156.885h232.34c-51.266 44.87-96.469 108.358-96.469 156.885v1.735c0.52 37.137 23.035 69.923 61.917 90.099 69.45 35.916 120.629 82.183 152.236 137.318 10.652 18.524 19.835 38.526 27.282 59.572 15.154 42.613 22.774 88.009 22.774 135.144zM141.153 587.005c-11.69 39.308-17.665 80.704-17.665 123.317v146.711c-30.309-8.088-97.509-37.308-97.509-136.536 0-96.793 77.591-125.404 115.174-133.492z" />
<glyph unicode="&#xe912;" horiz-adv-x="871" d="M743.358 102.347v-138.1c0-14.961-12.128-27.222-27.109-27.222h-565.65c-14.895 0-27.105 12.261-27.105 27.222v138.1c0 15.041 12.21 27.216 27.105 27.216h121.928v-2.174l-1.472-1.044 14.462-21.65v-1.217h-134.918c-0.606 0-1.126-0.525-1.126-1.13v-138.1c0-0.612 0.519-1.13 1.126-1.13h565.65c0.612 0 1.13 0.519 1.13 1.13v138.1c0 0.605-0.519 1.13-1.13 1.13h-134.829v1.13l14.115 22.003-1.126 0.778v2.174h121.839c14.981 0 27.109-12.175 27.109-27.216z" />
<glyph unicode="&#xe913;" horiz-adv-x="871" d="M717.385 933.909v-223.588c0-47.135-7.62-92.531-22.774-135.144-7.447-21.046-16.63-41.048-27.282-59.572-31.606-55.136-82.784-101.402-152.235-137.318-38.883-20.176-61.397-52.962-61.917-90.097v-1.735c0-48.527 45.204-112.015 96.469-156.891h-232.34c51.179 44.876 96.383 108.364 96.383 156.891v1.995c-0.52 36.876-23.122 69.662-61.917 89.838-69.45 35.916-120.63 82.183-152.238 137.318-10.652 18.524-19.831 38.613-27.278 59.659-15.068 42.439-22.775 87.922-22.775 135.057v223.588h567.904zM650.531 697.711c0 7.218-5.802 13.045-12.99 13.045h-203.59c-7.187 0-12.99-5.827-12.99-13.045v-82.269c0-7.219 5.802-13.045 12.99-13.045h96.209c-2.598-9.305-8.659-22.089-22.775-32.786-8.919-6.783-20.004-11.827-33.167-15.219s-28.404-5.131-45.636-5.131c-45.81 0-75.946 25.133-89.541 74.529 0 0.087 0 0.087-0.086 0.087v0.087c-1.819 6.261-3.031 12.523-3.897 17.219-2.338 12.61-2.598 25.481-0.866 38.004 0.779 5.392 1.905 10.61 3.377 15.827 6.148 21.22 18.012 39.57 34.292 52.962 36.718 30.351 81.661 27.916 133.446-7.131 5.023-3.392 11.691-2.87 16.107 1.217l65.813 61.050c4.504 4.174 5.456 11.045 2.339 16.349-1.646 2.609-39.921 64.007-170.943 64.007-41.654 0-94.044-22.872-127.471-55.658-21.476-21.133-38.622-45.484-51.092-72.268 0 0 0-0.087-0.086-0.087-10.218-21.741-16.973-44.787-20.177-68.094-3.897-28.090-2.685-56.615 3.897-84.009 3.897-16.089 9.439-31.308 16.454-45.222 9.006-18.089 20.61-34.438 34.638-49.048 14.029-14.524 30.483-27.307 49.361-38.178 41.48-23.916 80.189-32.525 114.308-32.525 82.701 0 138.382 50.179 142.539 54.006 5.976 5.131 69.538 62.876 69.538 205.325z" />
<glyph unicode="&#xe914;" horiz-adv-x="871" d="M637.531 710.76c7.187 0 12.99-5.827 12.99-13.045 0-142.45-63.562-200.195-69.538-205.325-4.157-3.827-59.839-54.006-142.539-54.006-34.119 0-72.828 8.61-114.308 32.525-18.878 10.871-35.331 23.654-49.36 38.178-14.029 14.61-25.633 30.959-34.639 49.048-7.014 13.914-12.557 29.133-16.453 45.222-6.582 27.394-7.794 55.919-3.897 84.009l25.633-3.218c-3.55-24.872-2.338-50.005 3.551-74.616 2.079-8.784 4.849-17.219 8.054-25.307l54.729 41.308c-0.953 4.087-1.732 7.827-2.252 10.957-2.857 15.306-3.117 31.046-0.866 46.266l25.546-3.565c-1.732-12.523-1.472-25.394 0.866-38.004 0.866-4.696 2.079-10.958 3.897-17.219v-0.087c0.086 0 0.086 0 0.086-0.087 13.596-49.396 43.731-74.529 89.541-74.529 17.233 0 32.474 1.739 45.636 5.131s24.248 8.436 33.167 15.219c14.115 10.697 20.177 23.481 22.775 32.786h-96.209c-7.188 0-12.99 5.827-12.99 13.045v82.269c0 7.218 5.802 13.045 12.99 13.045h203.59zM624.368 684.67h-177.437v-56.18h98.114c7.014 0 12.73-5.566 12.99-12.523 0.086-1.478 0.866-31.568-23.901-57.31l38.016-37.917c15.761 18.697 49.36 69.311 52.218 163.93zM553.099 502.999l-39.575 39.483c-21.65-12.784-50.054-19.306-84.952-19.306-52.132 0-89.455 26.176-108.766 75.834l-51.265-38.7c15.76-27.133 38.709-49.57 68.498-66.789 105.475-60.789 187.916-11.827 216.060 9.479z" />
<glyph unicode="&#xe915;" horiz-adv-x="871" d="M630.857 40.774h-394.883v-26.092h394.883v26.092z" />
<glyph unicode="&#xe916;" horiz-adv-x="871" d="M595.535 126.604l-14.115-21.996-1.212 0.864 14.202 21.916 1.126-0.785z" />
<glyph unicode="&#xe917;" horiz-adv-x="871" d="M589.562 819.461c3.117-5.305 2.165-12.175-2.338-16.349l-65.814-61.050c-4.416-4.087-11.084-4.609-16.107-1.217-51.785 35.047-96.729 37.482-133.446 7.131-16.28-13.393-28.144-31.743-34.293-52.962-1.472-5.218-2.598-10.436-3.377-15.827l-25.546 3.565c0.346 3.478 0.952 6.87 1.732 10.262l-52.998 37.048c-5.802-15.045-9.785-30.438-11.95-45.918l-25.633 3.218c3.204 23.307 9.959 46.353 20.177 68.094 0.087 0 0.087 0.086 0.087 0.086 12.47 26.786 29.616 51.136 51.092 72.268 33.426 32.786 85.818 55.658 127.471 55.658 131.021 0 169.297-61.397 170.943-64.007zM511.191 768.064l49.274 45.744c-14.635 14.436-54.902 43.57-141.846 43.57-34.898 0-80.795-20.263-109.285-48.266-16.627-16.349-30.136-34.873-40.787-55.049l50.139-35.047c8.314 19.306 20.783 36.091 36.717 49.136 30.829 25.48 82.527 45.396 155.788-0.087z" />
<glyph unicode="&#xe918;" horiz-adv-x="871" d="M560.464 813.813l-49.274-45.744c-73.261 45.483-124.96 25.567-155.788 0.086-15.934-13.045-28.404-29.829-36.717-49.135l-50.14 35.047c10.652 20.176 24.16 38.699 40.787 55.049 28.49 28.002 74.387 48.266 109.286 48.266 86.943 0 127.211-29.133 141.846-43.57z" />
<glyph unicode="&#xe919;" horiz-adv-x="871" d="M311.751 625.532l-54.729-41.308c-3.204 8.088-5.975 16.524-8.054 25.307-5.888 24.611-7.101 49.744-3.55 74.616 2.165 15.48 6.148 30.873 11.95 45.918l52.997-37.047c-0.779-3.392-1.385-6.784-1.731-10.262-2.251-15.219-1.992-30.96 0.866-46.266 0.519-3.131 1.299-6.87 2.251-10.957z" />
<glyph unicode="&#xe91a;" horiz-adv-x="871" d="M279.712 116.517l7.188-10.865-1.386-0.958-14.462 21.65 1.472 1.044 7.187-10.872z" />
<glyph unicode="&#xe91b;" glyph-name="phone" horiz-adv-x="977" d="M727.727 934.909c-19.994 4.296-39.844 1.512-58.091-7.636-16.656-8.35-31.931-23.186-40.091-40.909l-0.275-0.545-83.273-194.727-0.275-0.545c-6.777-16.983-8.651-38.258-3.363-56.818 4.483-15.736 13.829-32.663 28.818-45 0.035-0.029 0.056-0.062 0.093-0.091l71-59.545c-26.726-49.629-55.94-97.445-96.364-138.455-40.027-40.611-88.167-69.704-138.273-96.455l-57.908 70.818 2.273-3c-11.521 16.676-31.238 30.114-51.545 34.182-16.79 3.371-36.97 2.341-54.818-5.909l1.091 0.546-193-83.091 3.636 1.364c-22.923-7.652-38.222-25.694-46.273-39.818-10.415-18.273-13.737-41.911-8.273-62.455l41.364-178.455-0.909 5.182c2.391-20.371 14.457-44.052 33.364-57.182h0.091c14.317-9.935 32.921-17.091 52.637-17.091 152.988 0 296.417 39.329 427.636 115.636l0.363 0.186c127.212 75.603 229.24 177.94 304.636 305.455l0.093 0.093v0.093c76.837 131.691 115.362 275.525 115.362 428.719 0 19.683-7.099 38.295-17 52.636-12.095 17.519-33.573 27.434-52.818 31l-17.273-88.364c-1.742 0.987-4.44 2.314-6.091 4.273 0-0.283-0.088-0.535-0.093-0.818l-156.361 126.636zM712.182 842.909l171.636-38.091c-0.779-135.804-34.018-260.292-102-376.909-67.772-114.62-157.395-204.566-271.636-272.545-116.488-67.74-240.774-101.55-376.091-102.364l-39.727 170.909 185.273 79.727 105.545-129.091 32.727 15c72.699 33.438 137.968 78.692 194.273 135.818 55.931 56.742 100.82 121.239 134.182 192.818l15.091 32.364-128.273 107.636zM129.727 52.818c0.119-0.084 0.152-0.261 0.273-0.363-0.221 0-0.415-0.093-0.636-0.093 1.032 0 2.239-0.847 0.364 0.456z" />
<glyph unicode="&#xe91c;" glyph-name="star" horiz-adv-x="1088" d="M357.898 677.356l119.26 254.291c17.668 37.428 69.567 37.429 88.34 2.202l129.197-248.788c7.731-14.311 22.086-24.217 37.549-26.419l279.379-35.228c40.858-5.504 57.421-53.94 28.704-83.663l-197.658-199.249c-11.046-11.009-16.563-27.524-13.254-44.036l53.005-275.206c7.731-39.629-34.227-71.552-70.669-52.838l-251.773 125.498c-14.356 7.706-32.024 6.605-46.379-1.101l-246.251-135.405c-36.441-19.814-78.403 9.907-72.882 50.637l41.962 277.408c2.209 16.512-3.313 31.923-15.459 42.934l-205.392 191.543c-29.815 27.521-14.356 78.159 25.398 84.764l278.274 45.135c17.668 2.202 32.024 12.109 38.65 27.521z" />
<glyph unicode="&#xe91d;" glyph-name="calendar" horiz-adv-x="904" d="M879.351 639.966c6.752 0 12.427 2.344 17.155 6.966 4.728 4.689 7.023 10.315 7.023 17.013v72.005c0 26.658-9.391 49.365-28.232 67.985-18.848 18.621-41.677 27.998-68.56 27.998h-96.786v104.088c0 6.698-2.367 12.324-7.023 17.013-4.728 4.689-10.403 6.966-17.161 6.966h-80.643c-6.756 0-12.43-2.344-17.157-6.966-4.728-4.689-7.025-10.315-7.025-17.013v-104.021h-258.151v104.021c0 6.698-2.364 12.324-7.025 17.013-4.728 4.689-10.402 6.966-17.156 6.966h-80.647c-6.755 0-12.428-2.344-17.156-6.966-4.728-4.689-7.025-10.315-7.025-17.013v-104.021h-96.79c-26.882 0-49.78-9.311-68.557-27.998s-28.233-41.327-28.233-67.985v-72.072c0-6.698 2.364-12.324 7.025-17.013 4.728-4.689 10.402-6.966 17.156-6.966h854.968zM24.181 576c-6.754 0-12.428-2.344-17.156-6.966-4.728-4.688-7.025-10.315-7.025-17.013v-520.036c0-26.66 9.389-49.369 28.233-67.988s41.675-27.997 68.556-27.997h709.948c26.883 0 49.784 9.312 68.56 27.997 18.775 18.691 28.232 41.327 28.232 67.988v519.969c0 6.698-2.361 12.324-7.023 17.013-4.728 4.689-10.403 6.966-17.155 6.966l-855.17 0.067zM652.469 440.967c4.728 4.689 10.403 6.966 17.155 6.966h80.649c6.752 0 12.427-2.344 17.155-6.966 4.728-4.689 7.023-10.315 7.023-17.013v-80.041c0-6.698-2.361-12.324-7.023-17.016-4.728-4.686-10.403-6.963-17.155-6.963h-80.649c-6.752 0-12.427 2.343-17.155 6.963-4.728 4.692-7.023 10.318-7.023 17.016v80.041c-0.066 6.698 2.295 12.324 7.023 17.013zM652.469 184.965c4.728 4.692 10.403 6.969 17.155 6.969h80.649c6.752 0 12.427-2.343 17.155-6.969 4.728-4.686 7.023-10.312 7.023-17.010v-80.041c0-6.698-2.361-12.324-7.023-17.016-4.728-4.686-10.403-6.963-17.155-6.963h-80.649c-6.752 0-12.427 2.343-17.155 6.963-4.728 4.692-7.023 10.318-7.023 17.016v80.041c-0.066 6.632 2.295 12.324 7.023 17.010zM394.251 440.967c4.728 4.689 10.401 6.966 17.156 6.966h80.647c6.755 0 12.428-2.344 17.156-6.966 4.728-4.689 7.025-10.315 7.025-17.013v-80.041c0-6.698-2.364-12.324-7.025-17.016-4.728-4.686-10.401-6.963-17.156-6.963h-80.647c-6.755 0-12.428 2.343-17.156 6.963-4.728 4.692-7.025 10.318-7.025 17.016v80.041c0 6.698 2.364 12.324 7.025 17.013zM394.251 184.965c4.728 4.692 10.401 6.969 17.156 6.969h80.647c6.755 0 12.428-2.343 17.156-6.969 4.728-4.686 7.025-10.312 7.025-17.010v-80.041c0-6.698-2.364-12.324-7.025-17.016-4.728-4.686-10.401-6.963-17.156-6.963h-80.647c-6.755 0-12.428 2.343-17.156 6.963-4.728 4.692-7.025 10.318-7.025 17.016v80.041c0 6.632 2.364 12.324 7.025 17.010zM136.1 440.967c4.728 4.689 10.402 6.966 17.156 6.966h80.647c6.754 0 12.428-2.344 17.156-6.966 4.728-4.689 7.025-10.315 7.025-17.013v-80.041c0-6.698-2.364-12.324-7.025-17.016-4.728-4.686-10.402-6.963-17.156-6.963h-80.647c-6.754 0-12.428 2.343-17.156 6.963-4.728 4.692-7.024 10.318-7.024 17.016v80.041c-0.067 6.698 2.296 12.324 7.024 17.013zM136.1 184.965c4.728 4.692 10.402 6.969 17.156 6.969h80.647c6.754 0 12.428-2.343 17.156-6.969 4.728-4.686 7.025-10.312 7.025-17.010v-80.041c0-6.698-2.364-12.324-7.025-17.016-4.728-4.686-10.402-6.963-17.156-6.963h-80.647c-6.754 0-12.428 2.343-17.156 6.963-4.728 4.692-7.024 10.318-7.024 17.016v80.041c-0.067 6.632 2.296 12.324 7.024 17.010z" />
<glyph unicode="&#xe91e;" glyph-name="location" horiz-adv-x="740" d="M689.385 767.991c-33.405 58.668-78.29 105.347-134.783 139.971-56.492 34.691-118.079 52.037-184.889 52.037-66.746 0-128.333-17.346-184.825-51.97-56.492-34.692-101.441-81.304-134.781-139.971s-50.108-122.692-50.108-192.009c0-42.661 5.159-80.299 15.413-112.981s30.181-72.999 59.716-121.019c20.572-33.354 62.876-97.98 127.107-194.020 52.622-77.352 95.636-141.306 129.042-192.006 8.964-13.329 21.797-20.025 38.5-20.025s29.536 6.696 38.5 20.025l129.042 192.006c64.167 95.972 106.538 160.666 127.109 194.020 29.537 48.020 49.459 88.336 59.716 121.019 10.251 32.682 15.411 70.32 15.411 112.981-0.063 69.316-16.765 133.274-50.17 191.941zM369.713 426.703c-95.637 0-173.152 80.5-173.152 179.82s77.515 179.82 173.152 179.82c95.636 0 173.152-80.501 173.152-179.82 0.065-99.319-77.515-179.82-173.152-179.82z" />
</font>
</defs>
</svg>
