<svg width="60" height="60" viewBox="0 0 60 60" fill="none" xmlns="http://www.w3.org/2000/svg">
<rect x="-2" y="2" width="56" height="56" rx="8" transform="matrix(-1 0 0 1 56 0)" stroke="#650A85" stroke-width="4"/>
<path d="M39.1324 42C40.8808 42 42.362 41.5879 43.5761 40.7636C44.7417 39.9394 45.6159 38.8485 46.1987 37.4909C46.7329 36.1333 47 34.6788 47 33.1273C47 30.897 46.5386 28.7879 45.6159 26.8C44.6446 24.8121 43.4062 23.0667 41.9006 21.5636C40.3466 20.0121 38.671 18.8242 36.8741 18L31.8477 21.7091C33.1589 22.2909 34.3973 22.9939 35.5629 23.8182C36.7285 24.5939 37.7483 25.4667 38.6225 26.4364C39.4481 27.4061 40.0795 28.4 40.5166 29.4182L40.1523 29.6364C39.8609 29.4424 39.5452 29.297 39.2053 29.2C38.8168 29.103 38.3068 29.0545 37.6755 29.0545C36.8013 29.0545 35.9271 29.2727 35.053 29.7091C34.1302 30.1455 33.3775 30.8 32.7947 31.6727C32.1633 32.5455 31.8477 33.6606 31.8477 35.0182C31.8477 36.5212 32.1876 37.8061 32.8675 38.8727C33.5475 39.8909 34.4459 40.6667 35.5629 41.2C36.6799 41.7333 37.8697 42 39.1324 42ZM21.2848 42C23.0331 42 24.5143 41.5879 25.7285 40.7636C26.894 39.9394 27.7682 38.8485 28.351 37.4909C28.8852 36.1333 29.1523 34.6788 29.1523 33.1273C29.1523 30.897 28.6909 28.7879 27.7682 26.8C26.7969 24.8121 25.5585 23.0667 24.053 21.5636C22.4989 20.0121 20.8234 18.8242 19.0265 18L14 21.7091C15.3113 22.2909 16.5497 22.9939 17.7152 23.8182C18.8808 24.5939 19.9007 25.4667 20.7749 26.4364C21.6005 27.4061 22.2318 28.4 22.6689 29.4182L22.3047 29.6364C22.0133 29.4424 21.6976 29.297 21.3576 29.2C20.9691 29.103 20.4592 29.0545 19.8278 29.0545C18.9536 29.0545 18.0795 29.2727 17.2053 29.7091C16.2826 30.1455 15.5298 30.8 14.947 31.6727C14.3157 32.5455 14 33.6606 14 35.0182C14 36.5212 14.34 37.8061 15.0199 38.8727C15.6998 39.8909 16.5982 40.6667 17.7152 41.2C18.8322 41.7333 20.0221 42 21.2848 42Z" fill="#650A85"/>
</svg>
