<svg width="149" height="133" viewBox="0 0 149 133" fill="none" xmlns="http://www.w3.org/2000/svg">
<path d="M100.609 118.46L109.3 127.724C110.54 129.046 112.759 128.168 112.759 126.355V121.47C112.759 120.66 113.419 120.01 114.219 120.01H114.229C131.579 120.01 145.649 107.41 145.649 91.88C145.649 76.35 131.579 63.75 114.229 63.75C96.8786 63.75 82.8086 76.35 82.8086 91.88C82.8086 101.49 88.2886 110.03 96.5186 115.11C98.0286 116.05 99.3986 117.18 100.609 118.46Z" stroke="#FF0D4D" stroke-width="5" stroke-miterlimit="10" stroke-linecap="round"/>
<path d="M100 81H126.68" stroke="#FF0D4D" stroke-width="5" stroke-miterlimit="10" stroke-linecap="round"/>
<path d="M100 92H126.68" stroke="#FF0D4D" stroke-width="5" stroke-miterlimit="10" stroke-linecap="round"/>
<path d="M100 103H126.68" stroke="#FF0D4D" stroke-width="5" stroke-miterlimit="10" stroke-linecap="round"/>
<path d="M61.02 0C27.32 0 0 24.46 0 54.64C0 84.82 27.32 109.28 61.02 109.28C61.03 109.28 61.04 109.28 61.05 109.28C62.62 109.28 63.89 110.54 63.89 112.11V126.354C63.89 128.167 66.1085 129.045 67.3487 127.723L87.48 106.26C89.83 103.76 92.49 101.56 95.41 99.76C111.39 89.89 122.04 73.3 122.04 54.64C122.04 24.46 94.72 0 61.02 0ZM59.86 89.26C54.57 89.26 50.96 85.42 50.98 80.25C50.98 74.9 54.67 71.2 59.86 71.18C65.16 71.18 68.68 74.9 68.74 80.25C68.73 85.42 65.23 89.26 59.86 89.26ZM71.81 52.3C68.22 56.33 66.7 60.19 66.76 64.7L66.78 66.46H53.56L53.45 63.93C53.16 58.84 54.83 53.64 59.29 48.35C62.5 44.52 65.08 41.3 65.08 37.96C65.08 34.51 62.83 32.16 57.87 32.04C54.53 32.04 50.59 33.17 47.97 34.98L44.65 24.16C48.25 22.03 54.15 20.07 61.25 20.07C74.35 20.07 80.35 27.34 80.35 35.56C80.34 43.18 75.59 48.1 71.81 52.3Z" fill="#040059"/>
</svg>
