<svg width="656" height="319" viewBox="0 0 656 319" fill="none" xmlns="http://www.w3.org/2000/svg">
<path d="M384.5 53.413V257.966C384.5 264.837 379.282 270.502 372.864 270.502H51.1363C44.7083 270.502 39.5 264.837 39.5 257.966V53.413C39.5 44.1183 47.1376 36.499 56.4446 36.499H367.556C376.863 36.499 384.5 44.1183 384.5 53.413Z" stroke="#650A85" stroke-width="5" stroke-miterlimit="10"/>
<path d="M58.5 271V277.966C58.5 284.837 63.7083 290.502 70.1363 290.502H391.864C398.282 290.502 403.5 284.837 403.5 277.966V73.413C403.5 64.1183 395.863 56.499 386.556 56.499H384" stroke="#650A85" stroke-width="5" stroke-miterlimit="10"/>
<path d="M405 166.5H474.75M544.5 166.5H474.75M474.75 166.5V67C474.75 58.7157 481.466 52 489.75 52H544.5M474.75 166.5V273C474.75 281.284 481.466 288 489.75 288H544.5" stroke="#650A85" stroke-width="5"/>
<g filter="url(#filter0_d_405_425)">
<path d="M369.263 64.0283V244.293C369.263 251.253 363.98 256.99 357.483 256.99H31.7801C25.2828 257 20 251.263 20 244.293V64.0283" fill="#F5F5F5"/>
<path d="M369.263 64.1294H20V37.1205C20 27.7168 27.7319 20 37.154 20H352.109C361.531 20 369.263 27.7168 369.263 37.1205V64.1294Z" fill="#040059"/>
<path d="M54.4101 47.9478C57.6407 47.9478 60.2597 45.3339 60.2597 42.1096C60.2597 38.8853 57.6407 36.2715 54.4101 36.2715C51.1795 36.2715 48.5605 38.8853 48.5605 42.1096C48.5605 45.3339 51.1795 47.9478 54.4101 47.9478Z" fill="#FF0D4D"/>
<path d="M75.8027 47.9478C79.0333 47.9478 81.6522 45.3339 81.6522 42.1096C81.6522 38.8853 79.0333 36.2715 75.8027 36.2715C72.5721 36.2715 69.9531 38.8853 69.9531 42.1096C69.9531 45.3339 72.5721 47.9478 75.8027 47.9478Z" fill="#F5F5F5"/>
<path d="M97.1074 47.9478C100.338 47.9478 102.957 45.3339 102.957 42.1096C102.957 38.8853 100.338 36.2715 97.1074 36.2715C93.8767 36.2715 91.2578 38.8853 91.2578 42.1096C91.2578 45.3339 93.8767 47.9478 97.1074 47.9478Z" fill="#FF0D4D"/>
<path d="M171.167 236.486H53.0724C47.0103 236.486 42.0918 231.577 42.0918 225.527V180.246C42.0918 174.196 47.0103 169.287 53.0724 169.287H171.177C177.239 169.287 182.157 174.196 182.157 180.246V225.527C182.147 231.577 177.239 236.486 171.167 236.486Z" fill="#040059"/>
<path d="M336.18 236.485H218.086C212.024 236.485 207.105 231.576 207.105 225.526V180.245C207.105 174.195 212.024 169.286 218.086 169.286H336.191C342.253 169.286 347.171 174.195 347.171 180.245V225.526C347.161 231.576 342.253 236.485 336.18 236.485Z" fill="#040059"/>
<path d="M88.0291 112.107H72.5754C68.5576 112.107 65.2988 108.854 65.2988 104.844V89.4108C65.2988 85.4008 68.5576 82.1484 72.5754 82.1484H88.0392C92.057 82.1484 95.3158 85.4008 95.3158 89.4108V104.844C95.3158 108.854 92.057 112.107 88.0291 112.107Z" fill="#FF0D4D"/>
<path d="M43.9648 122.985H116.639" stroke="#040059" stroke-width="4" stroke-miterlimit="10" stroke-linecap="round" stroke-linejoin="round"/>
<path d="M43.9648 137.167H116.639" stroke="#040059" stroke-width="4" stroke-miterlimit="10" stroke-linecap="round" stroke-linejoin="round"/>
<path d="M43.8633 151.348H116.548" stroke="#040059" stroke-width="4" stroke-miterlimit="10" stroke-linecap="round" stroke-linejoin="round"/>
<path d="M318.561 112.107H303.097C299.079 112.107 295.82 108.854 295.82 104.844V89.4108C295.82 85.4008 299.079 82.1484 303.097 82.1484H318.561C322.579 82.1484 325.837 85.4008 325.837 89.4108V104.844C325.847 108.854 322.589 112.107 318.561 112.107Z" fill="#FF0D4D"/>
<path d="M274.496 122.985H347.17" stroke="#040059" stroke-width="4" stroke-miterlimit="10" stroke-linecap="round" stroke-linejoin="round"/>
<path d="M274.496 137.167H347.17" stroke="#040059" stroke-width="4" stroke-miterlimit="10" stroke-linecap="round" stroke-linejoin="round"/>
<path d="M274.395 151.348H347.079" stroke="#040059" stroke-width="4" stroke-miterlimit="10" stroke-linecap="round" stroke-linejoin="round"/>
<path d="M202.408 112.107H186.944C182.927 112.107 179.668 108.854 179.668 104.844V89.4108C179.668 85.4008 182.927 82.1484 186.944 82.1484H202.408C206.426 82.1484 209.685 85.4008 209.685 89.4108V104.844C209.685 108.854 206.426 112.107 202.408 112.107Z" fill="#FF0D4D"/>
<path d="M158.344 122.985H231.018" stroke="#040059" stroke-width="4" stroke-miterlimit="10" stroke-linecap="round" stroke-linejoin="round"/>
<path d="M158.344 137.167H231.018" stroke="#040059" stroke-width="4" stroke-miterlimit="10" stroke-linecap="round" stroke-linejoin="round"/>
<path d="M158.244 151.348H230.928" stroke="#040059" stroke-width="4" stroke-miterlimit="10" stroke-linecap="round" stroke-linejoin="round"/>
</g>
<path d="M136.972 218.184C136.972 220.859 134.794 223.04 132.122 223.04H90.9211C88.6236 223.04 86.7006 221.455 86.207 219.308L101.404 206.887C102.289 206.154 103.6 206.273 104.348 207.159L111.53 215.645L122.524 201.502C123.834 199.816 126.438 199.986 127.527 201.843L136.972 218.184Z" fill="white"/>
<path d="M135.968 187.973V218.201L126.897 201.86C125.859 200.003 123.374 199.833 122.098 201.52L111.53 215.662L104.637 207.177C103.923 206.29 102.663 206.171 101.812 206.904L87.2279 219.325C87.1428 218.968 87.0918 218.593 87.0918 218.201V187.973C87.0918 185.298 89.185 183.117 91.7548 183.117H131.305C133.875 183.117 135.968 185.281 135.968 187.973Z" stroke="white" stroke-miterlimit="10" stroke-linecap="round" stroke-linejoin="round"/>
<path d="M98.2233 201.639C100.376 201.639 102.12 199.892 102.12 197.737C102.12 195.582 100.376 193.835 98.2233 193.835C96.071 193.835 94.3262 195.582 94.3262 197.737C94.3262 199.892 96.071 201.639 98.2233 201.639Z" fill="white"/>
<path d="M301.984 218.184C301.984 220.859 299.805 223.04 297.134 223.04H255.933C253.635 223.04 251.712 221.455 251.219 219.308L266.416 206.887C267.301 206.154 268.611 206.273 269.36 207.159L276.542 215.645L287.535 201.502C288.846 199.816 291.45 199.986 292.539 201.843L301.984 218.184Z" fill="white"/>
<path d="M300.98 187.973V218.201L291.909 201.86C290.871 200.003 288.386 199.833 287.11 201.52L276.542 215.662L269.649 207.177C268.934 206.29 267.675 206.171 266.824 206.904L252.24 219.325C252.155 218.968 252.104 218.593 252.104 218.201V187.973C252.104 185.298 254.197 183.117 256.766 183.117H296.317C298.886 183.117 300.98 185.281 300.98 187.973Z" stroke="white" stroke-miterlimit="10" stroke-linecap="round" stroke-linejoin="round"/>
<path d="M263.233 201.639C265.385 201.639 267.13 199.892 267.13 197.737C267.13 195.582 265.385 193.835 263.233 193.835C261.081 193.835 259.336 195.582 259.336 197.737C259.336 199.892 261.081 201.639 263.233 201.639Z" fill="white"/>
<path d="M603.989 82H555.011C550.054 82 546 77.929 546 72.9524V29.0476C546 24.071 550.054 20 555.011 20H603.989C608.946 20 613 24.071 613 29.0476V72.9524C613 77.929 608.946 82 603.989 82Z" stroke="#650A85" stroke-width="4" stroke-miterlimit="10"/>
<path d="M600.421 56.3256C600.663 56.4445 600.827 56.6227 600.918 56.8575C601.009 57.0951 601.024 57.3299 600.964 57.5675C599.938 60.702 598.276 63.4829 595.984 65.9073C595.802 66.0856 595.592 66.2044 595.35 66.2609C595.107 66.3203 594.868 66.2906 594.625 66.1717L590.822 63.9524C589.19 65.3131 587.349 66.347 585.296 67.0571V71.4038C585.296 71.6415 585.22 71.8613 585.068 72.0693C584.917 72.2773 584.723 72.408 584.48 72.4674C581.159 73.1775 577.838 73.1775 574.517 72.4674C574.274 72.408 574.08 72.2743 573.929 72.0693C573.777 71.8613 573.701 71.6415 573.701 71.4038V67.0601C571.648 66.35 569.807 65.3161 568.178 63.9553L564.375 66.1747C564.132 66.2936 563.893 66.3233 563.65 66.2639C563.408 66.2044 563.198 66.0856 563.016 65.9103C560.724 63.4829 559.062 60.702 558.036 57.5675C557.976 57.3299 557.991 57.0951 558.082 56.8575C558.173 56.6198 558.34 56.4445 558.579 56.3256L562.382 54.1063C562.019 52.0354 562.019 49.9676 562.382 47.8967L558.579 45.6803C558.337 45.5615 558.173 45.3832 558.082 45.1485C557.991 44.9108 557.976 44.6761 558.036 44.4384C559.062 41.3039 560.724 38.523 563.016 36.0986C563.198 35.9204 563.408 35.8015 563.65 35.7451C563.893 35.6856 564.132 35.7154 564.375 35.8342L568.178 38.0536C569.81 36.6928 571.651 35.6589 573.701 34.9488V30.5962C573.701 30.3585 573.777 30.1387 573.929 29.9307C574.08 29.7227 574.274 29.592 574.517 29.5326C577.838 28.8225 581.159 28.8225 584.48 29.5326C584.723 29.592 584.917 29.7257 585.068 29.9307C585.22 30.1387 585.296 30.3615 585.296 30.5962V34.9429C587.349 35.653 589.19 36.6869 590.822 38.0476L594.625 35.8283C594.868 35.7094 595.107 35.6797 595.35 35.7391C595.592 35.7985 595.802 35.9174 595.984 36.0927C598.28 38.5171 599.938 41.298 600.964 44.4325C601.024 44.6701 601.009 44.9049 600.918 45.1425C600.827 45.3802 600.66 45.5555 600.421 45.6744L596.618 47.8938C596.978 49.9646 596.978 52.0324 596.618 54.1033L600.421 56.3256ZM584.616 45.9893C583.197 44.5988 581.493 43.9036 579.5 43.9036C577.507 43.9036 575.803 44.5988 574.384 45.9893C572.964 47.3798 572.254 49.0525 572.254 51.0045C572.254 52.9564 572.964 54.6262 574.384 56.0166C575.803 57.4071 577.507 58.1023 579.5 58.1023C581.493 58.1023 583.197 57.4071 584.616 56.0166C586.036 54.6262 586.746 52.9564 586.746 51.0045C586.746 49.0525 586.036 47.3798 584.616 45.9893Z" stroke="#650A85" stroke-width="4"/>
<path d="M603.989 317H555.011C550.054 317 546 312.929 546 307.952V264.048C546 259.071 550.054 255 555.011 255H603.989C608.946 255 613 259.071 613 264.048V307.952C613 312.929 608.946 317 603.989 317Z" stroke="#650A85" stroke-width="4" stroke-miterlimit="10"/>
<path d="M603.989 197H555.011C550.054 197 546 192.929 546 187.952V144.048C546 139.071 550.054 135 555.011 135H603.989C608.946 135 613 139.071 613 144.048V187.952C613 192.929 608.946 197 603.989 197Z" stroke="#650A85" stroke-width="4" stroke-miterlimit="10"/>
<path d="M571.014 171.098L584.338 180.195" stroke="#650A85" stroke-width="4" stroke-miterlimit="10"/>
<path d="M584.485 152.553L571.061 162.705" stroke="#650A85" stroke-width="4" stroke-miterlimit="10"/>
<path d="M590.302 156.037C593.931 156.037 596.873 153.118 596.873 149.518C596.873 145.918 593.931 143 590.302 143C586.673 143 583.73 145.918 583.73 149.518C583.73 153.118 586.673 156.037 590.302 156.037Z" stroke="#650A85" stroke-width="4" stroke-miterlimit="10"/>
<path d="M590.302 189.451C593.931 189.451 596.873 186.532 596.873 182.932C596.873 179.332 593.931 176.414 590.302 176.414C586.673 176.414 583.73 179.332 583.73 182.932C583.73 186.532 586.673 189.451 590.302 189.451Z" stroke="#650A85" stroke-width="4" stroke-miterlimit="10"/>
<path d="M565.205 174.016C569.185 174.016 572.41 170.816 572.41 166.869C572.41 162.922 569.185 159.722 565.205 159.722C561.226 159.722 558 162.922 558 166.869C558 170.816 561.226 174.016 565.205 174.016Z" stroke="#650A85" stroke-width="4" stroke-miterlimit="10"/>
<path d="M576.556 290.162V275.493C576.556 274.941 576.108 274.493 575.556 274.493H562C561.448 274.493 561 274.941 561 275.493V290.162M576.556 290.162H591.453C592.005 290.162 592.453 290.609 592.453 291.162V305C592.453 305.552 592.005 306 591.453 306H576.556M576.556 290.162V306M576.556 290.162H561M576.556 306H562C561.448 306 561 305.552 561 305V290.162M600 282.328H586.103C585.55 282.328 585.103 281.88 585.103 281.328V268C585.103 267.448 585.55 267 586.103 267H600C600.552 267 601 267.448 601 268V281.328C601 281.88 600.552 282.328 600 282.328Z" stroke="#650A85" stroke-width="4"/>
<defs>
<filter id="filter0_d_405_425" x="0" y="0" width="389.264" height="277" filterUnits="userSpaceOnUse" color-interpolation-filters="sRGB">
<feFlood flood-opacity="0" result="BackgroundImageFix"/>
<feColorMatrix in="SourceAlpha" type="matrix" values="0 0 0 0 0 0 0 0 0 0 0 0 0 0 0 0 0 0 127 0" result="hardAlpha"/>
<feOffset/>
<feGaussianBlur stdDeviation="10"/>
<feComposite in2="hardAlpha" operator="out"/>
<feColorMatrix type="matrix" values="0 0 0 0 0.0156863 0 0 0 0 0 0 0 0 0 0.34902 0 0 0 0.35 0"/>
<feBlend mode="normal" in2="BackgroundImageFix" result="effect1_dropShadow_405_425"/>
<feBlend mode="normal" in="SourceGraphic" in2="effect1_dropShadow_405_425" result="shape"/>
</filter>
</defs>
</svg>
