<svg width="161" height="131" viewBox="0 0 161 131" fill="none" xmlns="http://www.w3.org/2000/svg">
<path d="M114.514 122.042C115.349 121.611 121.999 118.5 122.835 118.931L139.687 127.664C141.808 128.767 144.276 126.993 143.878 124.66L140.664 106.166C140.51 105.24 140.818 104.302 141.499 103.643L155.125 90.5359C156.835 88.8879 155.884 86.0231 153.519 85.6809L134.686 82.9808C133.748 82.8414 132.938 82.2583 132.514 81.4217L124.094 64.5877C123.027 62.4708 119.968 62.4708 118.901 64.5877L110.481 81.4217C110.057 82.2583 109.247 82.8414 108.309 82.9808L89.4767 85.6809C87.0986 86.0105 86.1602 88.8879 87.8699 90.5359L101.483 103.643C102.164 104.302 102.486 105.24 102.319 106.166L100.078 122.042" stroke="#FF0D4D" stroke-width="5" stroke-miterlimit="10"/>
<path d="M80.0267 3.2069L96.8391 37.131C97.6797 38.8194 99.304 39.997 101.185 40.2666L138.785 45.7007C143.515 46.3817 145.396 52.1705 141.976 55.4906L114.763 81.909C113.409 83.2286 112.782 85.1298 113.11 86.9884L119.536 124.275C120.348 128.971 115.404 132.547 111.172 130.333L77.5476 112.726C75.8664 111.846 73.8574 111.846 72.1762 112.726L38.5514 130.333C34.3198 132.547 29.3759 128.971 30.188 124.275L36.6137 86.9884C36.9414 85.1298 36.3145 83.2286 34.961 81.909L7.74771 55.5047C4.32824 52.1847 6.20895 46.3959 10.9392 45.7149L48.5391 40.2808C50.4198 40.0112 52.0441 38.8336 52.8847 37.1452L69.6828 3.2069C71.8058 -1.06376 77.9181 -1.06376 80.0267 3.2069Z" fill="#040059"/>
</svg>
