<svg width="129" height="135" viewBox="0 0 129 135" fill="none" xmlns="http://www.w3.org/2000/svg">
<g clip-path="url(#clip0_405_317)">
<path d="M127.265 83.8277C127.99 84.1909 128.49 84.7309 128.754 85.4575C129.029 86.184 129.068 86.9106 128.892 87.6371C125.814 97.2491 120.835 105.781 113.945 113.223C113.406 113.763 112.769 114.127 112.044 114.313C111.319 114.5 110.593 114.401 109.868 114.038L98.4597 107.234C93.5691 111.407 88.0413 114.578 81.8864 116.758V130.091C81.8864 130.817 81.6609 131.495 81.2101 132.133C80.7592 132.771 80.1712 133.174 79.4459 133.36C69.4783 135.54 59.5206 135.54 49.5628 133.36C48.8376 133.174 48.2495 132.771 47.7987 132.133C47.3478 131.495 47.1224 130.817 47.1224 130.091V116.758C40.9674 114.578 35.4397 111.407 30.549 107.234L19.1407 114.038C18.4154 114.401 17.6902 114.49 16.9649 114.313C16.2396 114.136 15.6026 113.773 15.0635 113.223C8.16365 105.791 3.18477 97.2589 0.107276 87.6469C-0.0789418 86.9204 -0.0299371 86.1938 0.244489 85.4673C0.518916 84.7408 1.01876 84.2008 1.73423 83.8375L13.1425 77.0335C12.0546 70.6811 12.0546 64.3288 13.1425 57.9764L1.73423 51.1724C1.00896 50.8091 0.509115 50.2691 0.244489 49.5426C-0.0299371 48.816 -0.0691408 48.0895 0.107276 47.3629C3.18477 37.7509 8.16365 29.2189 15.0537 21.7768C15.5928 21.2368 16.2298 20.8735 16.9551 20.6869C17.6804 20.5004 18.4056 20.5986 19.1309 20.9618L30.5392 27.7658C35.4299 23.5931 40.9576 20.4218 47.1126 18.2422V4.8993C47.1126 4.17275 47.338 3.4953 47.7889 2.85712C48.2397 2.21894 48.8278 1.81639 49.553 1.62984C59.5206 -0.549792 69.4784 -0.549792 79.4361 1.62984C80.1614 1.81639 80.7494 2.21894 81.2003 2.85712C81.6511 3.4953 81.8765 4.17275 81.8765 4.8993V18.2324C88.0315 20.412 93.5593 23.5833 98.4499 27.756L109.858 20.952C110.584 20.5888 111.309 20.5004 112.034 20.6771C112.759 20.8538 113.396 21.2171 113.935 21.7669C120.816 29.2091 125.804 37.7313 128.882 47.3531C129.068 48.0797 129.019 48.8062 128.745 49.5328C128.47 50.2593 127.97 50.7993 127.255 51.1626L115.847 57.9666C116.935 64.3189 116.935 70.6713 115.847 77.0237L127.265 83.8277ZM85.9733 45.9884C80.0242 40.0288 72.8597 37.044 64.4995 37.044C56.1393 37.044 48.9846 40.0288 43.0256 45.9884C37.0666 51.948 34.0969 59.1251 34.0969 67.5C34.0969 75.8749 37.0764 83.0422 43.0256 89.0117C48.9748 94.9713 56.1393 97.956 64.4995 97.956C72.8597 97.956 80.0144 94.9713 85.9733 89.0117C91.9225 83.052 94.902 75.8749 94.902 67.5C94.902 59.1251 91.9225 51.9578 85.9733 45.9884Z" fill="#040059"/>
<path d="M64.5 57.3161V67.5L69.9462 70.9537M64.5 48C68.0157 48 71.2657 48.8767 74.25 50.6301C77.2343 52.3835 79.6076 54.7568 81.3699 57.75C83.1233 60.7343 84 63.9843 84 67.5C84 71.0157 83.1233 74.2657 81.3699 77.25C79.6165 80.2343 77.2432 82.6076 74.25 84.3699C71.2657 86.1233 68.0157 87 64.5 87C60.9843 87 57.7343 86.1233 54.75 84.3699C51.7657 82.6165 49.3924 80.2432 47.6301 77.25C45.8767 74.2657 45 71.0157 45 67.5C45 63.9843 45.8767 60.7343 47.6301 57.75C49.3835 54.7657 51.7568 52.3924 54.75 50.6301C57.7432 48.8767 60.9932 48 64.5 48Z" stroke="#FF0D4D" stroke-width="5" stroke-miterlimit="10" stroke-linecap="round"/>
</g>
<defs>
<clipPath id="clip0_405_317">
<rect width="129" height="135" fill="white"/>
</clipPath>
</defs>
</svg>
