<svg width="638" height="317" viewBox="0 0 638 317" fill="none" xmlns="http://www.w3.org/2000/svg">
<path d="M101.989 271H53.0109C48.0545 271 44 266.929 44 261.952V218.048C44 213.071 48.0545 209 53.0109 209H101.989C106.946 209 111 213.071 111 218.048V261.952C111 266.929 106.946 271 101.989 271Z" stroke="#650A85" stroke-width="4" stroke-miterlimit="10"/>
<path d="M57.3639 227.843C56.7584 229.381 56.4258 231.059 56.4258 232.816C56.4258 240.205 62.3231 246.198 69.6 246.198C71.0114 246.198 72.3696 245.973 73.6445 245.555L87.0938 259.323C88.2963 260.7 90.0531 261.569 92.0082 261.569C95.6349 261.569 98.5751 258.582 98.5751 254.898C98.5751 252.596 97.4259 250.567 95.6797 249.367L95.7181 249.395L82.2539 236.556C82.5929 235.369 82.7742 234.115 82.7742 232.818C82.772 225.424 76.8747 219.433 69.6 219.433C67.8474 219.433 66.1737 219.782 64.645 220.412L64.6727 220.484L72.7832 228.779L65.436 236.188L57.4321 228.003" stroke="#650A85" stroke-width="4" stroke-miterlimit="10" stroke-linecap="round" stroke-linejoin="round"/>
<path d="M207.709 262.677H476.623C487.067 262.677 495.53 254.219 495.53 243.781V68.5703C495.53 58.1326 487.067 49.6748 476.623 49.6748H207.709C197.265 49.6748 188.803 58.1326 188.803 68.5703V243.781C188.803 254.219 197.265 262.677 207.709 262.677Z" stroke="#650A85" stroke-width="5" stroke-miterlimit="10"/>
<path d="M210.142 262.676H192.428C187.571 262.676 182.869 264.406 179.157 267.549L138.052 302.4C136.931 303.35 136.285 304.745 136.285 306.214V311.077C136.285 312.673 137.574 313.961 139.17 313.961H545.162C546.758 313.961 548.047 312.673 548.047 311.077V306.33C548.047 304.795 547.341 303.344 546.133 302.396L501.078 267.049C497.462 264.214 493.01 262.676 488.413 262.676H479.056" stroke="#650A85" stroke-width="5" stroke-miterlimit="10"/>
<path d="M206.922 279.38C204.474 279.38 202.111 280.278 200.281 281.904L183.452 296.855C182.764 297.466 183.196 298.603 184.116 298.603H496.948C497.893 298.603 498.31 297.412 497.572 296.822L478.496 281.57C476.723 280.153 474.521 279.38 472.251 279.38H206.922Z" stroke="#650A85" stroke-width="5" stroke-miterlimit="10"/>
<path d="M218.279 244.78H465.89C471.874 244.78 476.719 240.25 476.719 234.655V79.9824C476.719 74.387 471.874 69.8574 465.89 69.8574H218.279C212.294 69.8574 207.449 74.387 207.449 79.9824V234.664C207.449 240.25 212.304 244.78 218.279 244.78Z" stroke="#650A85" stroke-width="5" stroke-miterlimit="10"/>
<g filter="url(#filter0_d_405_485)">
<path d="M601.962 143.378V259.887C601.962 264.848 598.225 268.899 593.654 268.899H419.308C414.736 268.899 411 264.848 411 259.887V143.378" fill="#F5F5F5"/>
<path d="M601.962 143.399H411V124.26C411 117.605 416.439 112.161 423.087 112.161H589.885C596.534 112.161 601.973 117.605 601.973 124.26V143.399H601.962Z" fill="#040059"/>
<path d="M435.26 131.944C437.53 131.944 439.371 130.102 439.371 127.829C439.371 125.556 437.53 123.714 435.26 123.714C432.989 123.714 431.148 125.556 431.148 127.829C431.148 130.102 432.989 131.944 435.26 131.944Z" fill="#FF0D4D"/>
<path d="M450.322 131.943C452.592 131.943 454.433 130.101 454.433 127.828C454.433 125.555 452.592 123.713 450.322 123.713C448.052 123.713 446.211 125.555 446.211 127.828C446.211 130.101 448.052 131.943 450.322 131.943Z" fill="#F5F5F5"/>
<path d="M465.377 131.943C467.647 131.943 469.488 130.101 469.488 127.828C469.488 125.555 467.647 123.713 465.377 123.713C463.106 123.713 461.266 125.555 461.266 127.828C461.266 130.101 463.106 131.943 465.377 131.943Z" fill="#FF0D4D"/>
<path d="M576.62 235.816L576.578 235.743" stroke="#040059" stroke-miterlimit="10"/>
<path d="M564.084 228.702L563.881 228.37" stroke="#040059" stroke-miterlimit="10"/>
<path d="M522.878 160.01L491.445 246.47" stroke="#FF0D4D" stroke-width="10" stroke-miterlimit="10"/>
<path d="M474.497 168.219L439.371 201.6L472.849 235.743" stroke="#040059" stroke-width="10" stroke-miterlimit="10"/>
<path d="M540.23 168.219L575.357 201.6L541.868 235.743" stroke="#040059" stroke-width="10" stroke-miterlimit="10"/>
</g>
<g filter="url(#filter1_d_405_485)">
<path d="M335.306 62.0508V219.035C335.306 225.712 330.275 231.177 324.119 231.177H89.1877C83.0318 231.188 78 225.722 78 219.035V62.0508" fill="#F5F5F5"/>
<path d="M335.306 62.0726H78V36.2997C78 27.33 85.3229 20 94.2837 20H319.023C327.973 20 335.306 27.33 335.306 36.2997V62.0726Z" fill="#040059"/>
<path d="M110.685 46.6306C113.742 46.6306 116.22 44.1501 116.22 41.0902C116.22 38.0303 113.742 35.5498 110.685 35.5498C107.628 35.5498 105.15 38.0303 105.15 41.0902C105.15 44.1501 107.628 46.6306 110.685 46.6306Z" fill="#FF0D4D"/>
<path d="M130.984 46.6306C134.041 46.6306 136.519 44.1501 136.519 41.0902C136.519 38.0303 134.041 35.5498 130.984 35.5498C127.927 35.5498 125.449 38.0303 125.449 41.0902C125.449 44.1501 127.927 46.6306 130.984 46.6306Z" fill="#F5F5F5"/>
<path d="M151.271 46.6306C154.328 46.6306 156.806 44.1501 156.806 41.0902C156.806 38.0303 154.328 35.5498 151.271 35.5498C148.214 35.5498 145.736 38.0303 145.736 41.0902C145.736 44.1501 148.214 46.6306 151.271 46.6306Z" fill="#FF0D4D"/>
<path d="M301.164 186.596L301.111 186.512" stroke="#040059" stroke-miterlimit="10"/>
<path d="M284.272 177.027L284.004 176.577" stroke="#040059" stroke-miterlimit="10"/>
<path d="M103.32 82.8838H200.263" stroke="#FF0D4D" stroke-width="8" stroke-miterlimit="10" stroke-linecap="round"/>
<path d="M103.32 131.161H224.319" stroke="#FF0D4D" stroke-width="8" stroke-miterlimit="10" stroke-linecap="round"/>
<path d="M103.32 179.567H206.654" stroke="#FF0D4D" stroke-width="8" stroke-miterlimit="10" stroke-linecap="round"/>
<path d="M103.32 106.781H172.384" stroke="#040059" stroke-width="8" stroke-miterlimit="10" stroke-linecap="round"/>
<path d="M191.334 106.781H260.398" stroke="#650A85" stroke-width="8" stroke-miterlimit="10" stroke-linecap="round"/>
<path d="M103.32 155.123H172.384" stroke="#650A85" stroke-width="8" stroke-miterlimit="10" stroke-linecap="round"/>
<path d="M191.334 155.123H260.398" stroke="#040059" stroke-width="8" stroke-miterlimit="10" stroke-linecap="round"/>
<path d="M103.32 202.457H172.384" stroke="#040059" stroke-width="8" stroke-miterlimit="10" stroke-linecap="round"/>
<path d="M191.334 202.457H260.398" stroke="#650A85" stroke-width="8" stroke-miterlimit="10" stroke-linecap="round"/>
<path d="M243.547 130.679H312.611" stroke="#FF0D4D" stroke-width="8" stroke-miterlimit="10" stroke-linecap="round"/>
</g>
<path d="M626.989 82H578.011C573.054 82 569 77.929 569 72.9524V29.0476C569 24.071 573.054 20 578.011 20H626.989C631.946 20 636 24.071 636 29.0476V72.9524C636 77.929 631.946 82 626.989 82Z" stroke="#650A85" stroke-width="4" stroke-miterlimit="10"/>
<path d="M598.102 68.9011C597.633 69.4324 597.236 69.6139 596.541 69.7679L585.981 72.1196C585.478 72.2328 585 71.8492 585 71.3305V60.2449C585 59.4495 585.222 58.6154 585.741 58.0117L598.102 68.9011Z" stroke="#650A85" stroke-width="4" stroke-linejoin="round"/>
<path d="M623.363 40.0449L598.101 68.901L585.74 58.0116L609.966 29.8994C610.834 28.887 612.335 28.7047 613.423 29.4781L622.92 36.2501C624.159 37.1367 624.367 38.8973 623.363 40.0449Z" stroke="#650A85" stroke-width="4" stroke-linejoin="round"/>
<defs>
<filter id="filter0_d_405_485" x="391" y="92.1611" width="230.973" height="196.738" filterUnits="userSpaceOnUse" color-interpolation-filters="sRGB">
<feFlood flood-opacity="0" result="BackgroundImageFix"/>
<feColorMatrix in="SourceAlpha" type="matrix" values="0 0 0 0 0 0 0 0 0 0 0 0 0 0 0 0 0 0 127 0" result="hardAlpha"/>
<feOffset/>
<feGaussianBlur stdDeviation="10"/>
<feComposite in2="hardAlpha" operator="out"/>
<feColorMatrix type="matrix" values="0 0 0 0 0.0156863 0 0 0 0 0 0 0 0 0 0.34902 0 0 0 0.35 0"/>
<feBlend mode="normal" in2="BackgroundImageFix" result="effect1_dropShadow_405_485"/>
<feBlend mode="normal" in="SourceGraphic" in2="effect1_dropShadow_405_485" result="shape"/>
</filter>
<filter id="filter1_d_405_485" x="58" y="0" width="297.307" height="251.177" filterUnits="userSpaceOnUse" color-interpolation-filters="sRGB">
<feFlood flood-opacity="0" result="BackgroundImageFix"/>
<feColorMatrix in="SourceAlpha" type="matrix" values="0 0 0 0 0 0 0 0 0 0 0 0 0 0 0 0 0 0 127 0" result="hardAlpha"/>
<feOffset/>
<feGaussianBlur stdDeviation="10"/>
<feComposite in2="hardAlpha" operator="out"/>
<feColorMatrix type="matrix" values="0 0 0 0 0.0156863 0 0 0 0 0 0 0 0 0 0.34902 0 0 0 0.35 0"/>
<feBlend mode="normal" in2="BackgroundImageFix" result="effect1_dropShadow_405_485"/>
<feBlend mode="normal" in="SourceGraphic" in2="effect1_dropShadow_405_485" result="shape"/>
</filter>
</defs>
</svg>
