<svg width="60" height="60" viewBox="0 0 60 60" fill="none" xmlns="http://www.w3.org/2000/svg">
<rect x="2" y="2" width="56" height="56" rx="8" stroke="#650A85" stroke-width="4"/>
<path d="M20.8676 42C19.1192 42 17.638 41.5879 16.4239 40.7636C15.2583 39.9394 14.3841 38.8485 13.8013 37.4909C13.2671 36.1333 13 34.6788 13 33.1273C13 30.897 13.4614 28.7879 14.3841 26.8C15.3554 24.8121 16.5938 23.0667 18.0994 21.5636C19.6534 20.0121 21.329 18.8242 23.1259 18L28.1523 21.7091C26.8411 22.2909 25.6027 22.9939 24.4371 23.8182C23.2715 24.5939 22.2517 25.4667 21.3775 26.4364C20.5519 27.4061 19.9205 28.4 19.4834 29.4182L19.8477 29.6364C20.1391 29.4424 20.4548 29.297 20.7947 29.2C21.1832 29.103 21.6932 29.0545 22.3245 29.0545C23.1987 29.0545 24.0729 29.2727 24.947 29.7091C25.8698 30.1455 26.6225 30.8 27.2053 31.6727C27.8367 32.5455 28.1523 33.6606 28.1523 35.0182C28.1523 36.5212 27.8124 37.8061 27.1325 38.8727C26.4525 39.8909 25.5541 40.6667 24.4371 41.2C23.3201 41.7333 22.1303 42 20.8676 42ZM38.7152 42C36.9669 42 35.4857 41.5879 34.2715 40.7636C33.106 39.9394 32.2318 38.8485 31.649 37.4909C31.1148 36.1333 30.8477 34.6788 30.8477 33.1273C30.8477 30.897 31.3091 28.7879 32.2318 26.8C33.2031 24.8121 34.4415 23.0667 35.947 21.5636C37.5011 20.0121 39.1766 18.8242 40.9735 18L46 21.7091C44.6887 22.2909 43.4503 22.9939 42.2848 23.8182C41.1192 24.5939 40.0993 25.4667 39.2251 26.4364C38.3995 27.4061 37.7682 28.4 37.3311 29.4182L37.6953 29.6364C37.9867 29.4424 38.3024 29.297 38.6424 29.2C39.0309 29.103 39.5408 29.0545 40.1722 29.0545C41.0464 29.0545 41.9205 29.2727 42.7947 29.7091C43.7174 30.1455 44.4702 30.8 45.053 31.6727C45.6843 32.5455 46 33.6606 46 35.0182C46 36.5212 45.66 37.8061 44.9801 38.8727C44.3002 39.8909 43.4018 40.6667 42.2848 41.2C41.1678 41.7333 39.9779 42 38.7152 42Z" fill="#650A85"/>
</svg>
