<svg width="163" height="134" viewBox="0 0 163 134" fill="none" xmlns="http://www.w3.org/2000/svg">
<path d="M18.3574 106.591L27.0703 115.317L40.2829 98.9648" stroke="#FF0D4D" stroke-width="5" stroke-linecap="round" stroke-linejoin="round"/>
<circle cx="29.1816" cy="105.182" r="26.1816" stroke="#FF0D4D" stroke-width="5" stroke-linecap="round" stroke-linejoin="round"/>
<path d="M90.4983 0C54.3239 0 25 29.3239 25 65.4983C25 101.673 54.3239 131 90.4983 131C126.676 131 156 101.673 156 65.4983C156 29.3239 126.676 0 90.4983 0ZM74.0538 97.8594C70.1288 97.8594 66.9447 94.6754 66.9447 90.7469C66.9447 86.8184 70.1288 83.6344 74.0538 83.6344C77.9823 83.6344 81.1663 86.8184 81.1663 90.7469C81.1663 94.6754 77.9823 97.8594 74.0538 97.8594ZM98.7327 97.8594C94.8042 97.8594 91.6202 94.6754 91.6202 90.7469C91.6202 86.8184 94.8042 83.6344 98.7327 83.6344C102.658 83.6344 105.842 86.8184 105.842 90.7469C105.842 94.6754 102.658 97.8594 98.7327 97.8594ZM133.048 56.4914C132.698 57.4071 132.097 58.204 131.367 58.8576L110.62 77.427C110.62 77.427 108.176 80.4573 106.614 79.2829C105.048 78.1086 105.842 76.8399 105.842 76.8399L114.139 67.847C114.139 67.847 121.765 61.2971 119.322 58.8506C117.487 57.0191 111.368 56.8898 108.421 56.9387C106.345 56.9772 104.272 56.9457 102.196 56.8793C95.0699 56.6521 81.2362 56.0056 72.0057 54.258C59.1017 51.8114 53.527 39.5925 53.527 39.5925C53.527 39.5925 52.6498 38.1735 53.527 37.4431C55.0754 36.1499 56.753 37.4431 56.753 37.4431C62.7192 43.7972 64.2081 44.7968 74.6689 47.3412C85.1298 49.8821 102.116 48.6833 102.116 48.6833C102.116 48.6833 122.157 47.9983 129.294 50.5427C133.754 52.1295 133.708 54.7508 133.048 56.4914Z" fill="#040059"/>
</svg>
