<svg width="656" height="337" viewBox="0 0 656 337" fill="none" xmlns="http://www.w3.org/2000/svg">
<g filter="url(#filter0_d_405_653)">
<path d="M168 230.5V266.5C168 272.023 172.477 276.5 178 276.5H329C334.523 276.5 339 272.023 339 266.5V81C339 75.4772 343.477 71 349 71H500.5C506.023 71 510.5 75.4772 510.5 81V117" stroke="#650A85" stroke-width="5"/>
<path d="M304 59.5728V221.585C304 227.842 299.268 233 293.437 233H53.5627C47.7321 233 43 227.842 43 221.585V59.5728" fill="#F5F5F5"/>
<path d="M162.498 80C126.324 80 97 109.324 97 145.498C97 181.673 126.324 211 162.498 211C198.676 211 228 181.673 228 145.498C228 109.324 198.676 80 162.498 80ZM146.054 177.859C142.129 177.859 138.945 174.675 138.945 170.747C138.945 166.818 142.129 163.634 146.054 163.634C149.982 163.634 153.166 166.818 153.166 170.747C153.166 174.675 149.982 177.859 146.054 177.859ZM170.733 177.859C166.804 177.859 163.62 174.675 163.62 170.747C163.62 166.818 166.804 163.634 170.733 163.634C174.658 163.634 177.842 166.818 177.842 170.747C177.842 174.675 174.658 177.859 170.733 177.859ZM205.048 136.491C204.698 137.407 204.097 138.204 203.367 138.858L182.62 157.427C182.62 157.427 180.176 160.457 178.614 159.283C177.048 158.109 177.842 156.84 177.842 156.84L186.139 147.847C186.139 147.847 193.765 141.297 191.322 138.851C189.487 137.019 183.368 136.89 180.421 136.939C178.345 136.977 176.272 136.946 174.196 136.879C167.07 136.652 153.236 136.006 144.006 134.258C131.102 131.811 125.527 119.593 125.527 119.593C125.527 119.593 124.65 118.174 125.527 117.443C127.075 116.15 128.753 117.443 128.753 117.443C134.719 123.797 136.208 124.797 146.669 127.341C157.13 129.882 174.116 128.683 174.116 128.683C174.116 128.683 194.157 127.998 201.294 130.543C205.754 132.129 205.708 134.751 205.048 136.491Z" fill="#040059"/>
<circle cx="219.182" cy="185.182" r="26.1816" fill="#FF0D4D"/>
<path d="M215.472 195H210.88L206.848 188.448L202.872 195H198.448L204.804 185.676L198.896 176.52H203.432L207.156 182.736L210.936 176.52H215.136L209.2 185.536L215.472 195ZM219.858 190.716C220.605 190.716 221.193 190.921 221.622 191.332C222.07 191.743 222.294 192.293 222.294 192.984C222.294 193.693 222.07 194.253 221.622 194.664C221.193 195.056 220.605 195.252 219.858 195.252C219.111 195.252 218.514 195.056 218.066 194.664C217.637 194.253 217.422 193.693 217.422 192.984C217.422 192.293 217.637 191.743 218.066 191.332C218.514 190.921 219.111 190.716 219.858 190.716ZM232.279 195.28C229.908 195.28 228.079 194.477 226.791 192.872C225.522 191.267 224.887 188.896 224.887 185.76C224.887 182.624 225.522 180.253 226.791 178.648C228.079 177.043 229.908 176.24 232.279 176.24C234.65 176.24 236.47 177.043 237.739 178.648C239.027 180.253 239.671 182.624 239.671 185.76C239.671 188.896 239.027 191.267 237.739 192.872C236.47 194.477 234.65 195.28 232.279 195.28ZM232.279 192.172C233.082 192.172 233.735 191.948 234.239 191.5C234.762 191.033 235.154 190.333 235.415 189.4C235.676 188.448 235.807 187.235 235.807 185.76C235.807 184.285 235.676 183.081 235.415 182.148C235.154 181.196 234.762 180.496 234.239 180.048C233.735 179.581 233.082 179.348 232.279 179.348C231.476 179.348 230.814 179.581 230.291 180.048C229.768 180.496 229.376 181.196 229.115 182.148C228.872 183.081 228.751 184.285 228.751 185.76C228.751 187.235 228.872 188.448 229.115 189.4C229.376 190.333 229.768 191.033 230.291 191.5C230.814 191.948 231.476 192.172 232.279 192.172Z" fill="white"/>
<path d="M304 59.6574H43V35.3894C43 26.9337 49.9291 20 58.3793 20H288.621C297.071 20 304 26.9337 304 35.3894V59.6574Z" fill="#040059"/>
<path d="M73.8426 45.1135C76.7361 45.1135 79.0817 42.7664 79.0817 39.871C79.0817 36.9756 76.7361 34.6284 73.8426 34.6284C70.9491 34.6284 68.6035 36.9756 68.6035 39.871C68.6035 42.7664 70.9491 45.1135 73.8426 45.1135Z" fill="#FF0D4D"/>
<path d="M93.0243 45.1135C95.9177 45.1135 98.2634 42.7664 98.2634 39.871C98.2634 36.9756 95.9177 34.6284 93.0243 34.6284C90.1308 34.6284 87.7852 36.9756 87.7852 39.871C87.7852 42.7664 90.1308 45.1135 93.0243 45.1135Z" fill="#F5F5F5"/>
<path d="M112.122 45.1135C115.015 45.1135 117.361 42.7664 117.361 39.871C117.361 36.9756 115.015 34.6284 112.122 34.6284C109.228 34.6284 106.883 36.9756 106.883 39.871C106.883 42.7664 109.228 45.1135 112.122 45.1135Z" fill="#FF0D4D"/>
</g>
<g filter="url(#filter1_d_405_653)">
<path d="M636 143.573V305.585C636 311.842 631.268 317 625.437 317H385.563C379.732 317 375 311.842 375 305.585V143.573" fill="#F5F5F5"/>
<path d="M494.498 164C458.324 164 429 193.324 429 229.498C429 265.673 458.324 295 494.498 295C530.676 295 560 265.673 560 229.498C560 193.324 530.676 164 494.498 164ZM478.054 261.859C474.129 261.859 470.945 258.675 470.945 254.747C470.945 250.818 474.129 247.634 478.054 247.634C481.982 247.634 485.166 250.818 485.166 254.747C485.166 258.675 481.982 261.859 478.054 261.859ZM502.733 261.859C498.804 261.859 495.62 258.675 495.62 254.747C495.62 250.818 498.804 247.634 502.733 247.634C506.658 247.634 509.842 250.818 509.842 254.747C509.842 258.675 506.658 261.859 502.733 261.859ZM537.048 220.491C536.698 221.407 536.097 222.204 535.367 222.858L514.62 241.427C514.62 241.427 512.176 244.457 510.614 243.283C509.048 242.109 509.842 240.84 509.842 240.84L518.139 231.847C518.139 231.847 525.765 225.297 523.322 222.851C521.487 221.019 515.368 220.89 512.421 220.939C510.345 220.977 508.272 220.946 506.196 220.879C499.07 220.652 485.236 220.006 476.006 218.258C463.102 215.811 457.527 203.593 457.527 203.593C457.527 203.593 456.65 202.174 457.527 201.443C459.075 200.15 460.753 201.443 460.753 201.443C466.719 207.797 468.208 208.797 478.669 211.341C489.13 213.882 506.116 212.683 506.116 212.683C506.116 212.683 526.157 211.998 533.294 214.543C537.754 216.129 537.708 218.751 537.048 220.491Z" fill="#040059"/>
<circle cx="551.182" cy="269.182" r="26.1816" fill="#FF0D4D"/>
<path d="M550.472 278H545.88L541.848 271.448L537.872 278H533.448L539.804 268.676L533.896 259.52H538.432L542.156 265.736L545.936 259.52H550.136L544.2 268.536L550.472 278ZM554.858 273.716C555.605 273.716 556.193 273.921 556.622 274.332C557.07 274.743 557.294 275.293 557.294 275.984C557.294 276.693 557.07 277.253 556.622 277.664C556.193 278.056 555.605 278.252 554.858 278.252C554.111 278.252 553.514 278.056 553.066 277.664C552.637 277.253 552.422 276.693 552.422 275.984C552.422 275.293 552.637 274.743 553.066 274.332C553.514 273.921 554.111 273.716 554.858 273.716ZM561.293 278V266.296C561.293 265.867 561.293 265.428 561.293 264.98C561.312 264.513 561.331 264.037 561.349 263.552C560.715 264.131 560.005 264.635 559.221 265.064C558.437 265.493 557.635 265.792 556.813 265.96L556.309 262.712C556.739 262.675 557.215 262.553 557.737 262.348C558.279 262.124 558.82 261.863 559.361 261.564C559.921 261.247 560.425 260.92 560.873 260.584C561.34 260.229 561.695 259.875 561.937 259.52H565.073V278H561.293Z" fill="white"/>
<path d="M636 143.657H375V119.389C375 110.934 381.929 104 390.379 104H620.621C629.071 104 636 110.934 636 119.389V143.657Z" fill="#040059"/>
<path d="M405.843 129.114C408.736 129.114 411.082 126.766 411.082 123.871C411.082 120.976 408.736 118.628 405.843 118.628C402.949 118.628 400.604 120.976 400.604 123.871C400.604 126.766 402.949 129.114 405.843 129.114Z" fill="#FF0D4D"/>
<path d="M425.024 129.114C427.918 129.114 430.263 126.766 430.263 123.871C430.263 120.976 427.918 118.628 425.024 118.628C422.131 118.628 419.785 120.976 419.785 123.871C419.785 126.766 422.131 129.114 425.024 129.114Z" fill="#F5F5F5"/>
<path d="M444.122 129.114C447.015 129.114 449.361 126.766 449.361 123.871C449.361 120.976 447.015 118.628 444.122 118.628C441.228 118.628 438.883 120.976 438.883 123.871C438.883 126.766 441.228 129.114 444.122 129.114Z" fill="#FF0D4D"/>
</g>
<path d="M131.989 317H83.0109C78.0545 317 74 312.929 74 307.952V264.048C74 259.071 78.0545 255 83.0109 255H131.989C136.946 255 141 259.071 141 264.048V307.952C141 312.929 136.946 317 131.989 317Z" stroke="#650A85" stroke-width="4" stroke-miterlimit="10"/>
<path d="M123.968 286C123.968 276.611 116.42 269 107.109 269C101.559 269 96.635 271.705 93.5631 275.879M123.968 286L116.269 281.775M123.968 286L127.086 278.04M90.2509 286C90.2509 295.389 97.7986 303 107.109 303C113.529 303 119.11 299.382 121.957 294.058M90.2509 286L87.9121 296.22M90.2509 286L98.5339 291.012" stroke="#650A85" stroke-width="4" stroke-linecap="round" stroke-linejoin="round"/>
<path d="M608.989 82H560.011C555.054 82 551 77.929 551 72.9524V29.0476C551 24.071 555.054 20 560.011 20H608.989C613.946 20 618 24.071 618 29.0476V72.9524C618 77.929 613.946 82 608.989 82Z" stroke="#650A85" stroke-width="4" stroke-miterlimit="10"/>
<path d="M573.5 42.9885L584.896 55.605M584.896 55.605L595.477 42.9885M584.896 55.605V32" stroke="#650A85" stroke-width="4" stroke-linecap="round" stroke-linejoin="round"/>
<path d="M568 54V70H601V54" stroke="#650A85" stroke-width="4" stroke-linecap="round" stroke-linejoin="round"/>
<defs>
<filter id="filter0_d_405_653" x="23" y="0" width="510" height="299" filterUnits="userSpaceOnUse" color-interpolation-filters="sRGB">
<feFlood flood-opacity="0" result="BackgroundImageFix"/>
<feColorMatrix in="SourceAlpha" type="matrix" values="0 0 0 0 0 0 0 0 0 0 0 0 0 0 0 0 0 0 127 0" result="hardAlpha"/>
<feOffset/>
<feGaussianBlur stdDeviation="10"/>
<feComposite in2="hardAlpha" operator="out"/>
<feColorMatrix type="matrix" values="0 0 0 0 0.0156863 0 0 0 0 0 0 0 0 0 0.34902 0 0 0 0.35 0"/>
<feBlend mode="normal" in2="BackgroundImageFix" result="effect1_dropShadow_405_653"/>
<feBlend mode="normal" in="SourceGraphic" in2="effect1_dropShadow_405_653" result="shape"/>
</filter>
<filter id="filter1_d_405_653" x="355" y="84" width="301" height="253" filterUnits="userSpaceOnUse" color-interpolation-filters="sRGB">
<feFlood flood-opacity="0" result="BackgroundImageFix"/>
<feColorMatrix in="SourceAlpha" type="matrix" values="0 0 0 0 0 0 0 0 0 0 0 0 0 0 0 0 0 0 127 0" result="hardAlpha"/>
<feOffset/>
<feGaussianBlur stdDeviation="10"/>
<feComposite in2="hardAlpha" operator="out"/>
<feColorMatrix type="matrix" values="0 0 0 0 0.0156863 0 0 0 0 0 0 0 0 0 0.34902 0 0 0 0.35 0"/>
<feBlend mode="normal" in2="BackgroundImageFix" result="effect1_dropShadow_405_653"/>
<feBlend mode="normal" in="SourceGraphic" in2="effect1_dropShadow_405_653" result="shape"/>
</filter>
</defs>
</svg>
