<svg width="142" height="131" viewBox="0 0 142 131" fill="none" xmlns="http://www.w3.org/2000/svg">
<g clip-path="url(#clip0_405_413)">
<path d="M14.418 65.5002C14.418 31.1173 42.2563 3.24023 76.5915 3.24023C110.927 3.24023 138.765 31.1173 138.765 65.5002C138.765 99.8832 110.927 127.76 76.5915 127.76" stroke="#FF0D4D" stroke-width="6" stroke-miterlimit="10" stroke-linecap="round"/>
<path d="M3.23633 50.9331L14.4182 65.5002L28.1627 53.0197" stroke="#FF0D4D" stroke-width="6" stroke-miterlimit="10" stroke-linecap="round"/>
<path d="M76.7852 17.0166C50.8753 17.0166 29.8574 38.0507 29.8574 64.0097C29.8574 89.9686 50.8623 111.003 76.7852 111.003C102.695 111.003 123.713 89.9686 123.713 64.0097C123.713 38.0507 102.695 17.0166 76.7852 17.0166ZM80.2796 86.6768V94.5694H72.7344V87.247C67.6093 87.0396 62.5749 85.5881 59.7018 83.9422L61.9925 74.9609C65.2409 76.6975 69.7836 78.3305 74.7533 78.3305C79.1277 78.3305 82.1303 76.5939 82.1303 73.5612C82.1303 70.6193 79.6713 68.8178 73.9509 66.8998C65.7327 64.1133 60.1418 60.2513 60.1418 52.8381C60.1418 46.0341 64.8786 40.7205 73.1226 39.1394V31.8299H80.6678V38.621C85.7411 38.8024 89.2096 39.9299 91.798 41.1352L89.5073 49.8314C87.553 48.9501 83.9939 47.1746 78.4806 47.1746C73.5368 47.1746 71.919 49.3778 71.919 51.5162C71.919 54.0175 74.598 55.6764 81.1079 58.0869C90.2579 61.301 93.9075 65.539 93.9075 72.5115C93.8946 79.3673 89.106 85.1475 80.2796 86.6768Z" fill="#040059"/>
</g>
<defs>
<clipPath id="clip0_405_413">
<rect width="142" height="131" fill="white"/>
</clipPath>
</defs>
</svg>
