<svg width="607" height="317" viewBox="0 0 607 317" fill="none" xmlns="http://www.w3.org/2000/svg">
<path d="M9.5625 281.454H61.0061" stroke="#650A85" stroke-width="3.5" stroke-miterlimit="10" stroke-linecap="round" stroke-linejoin="round"/>
<path d="M15.5117 281.454V269.994C15.5117 269.635 15.8042 269.342 16.1632 269.342H25.044C25.4029 269.342 25.6954 269.635 25.6954 269.994V281.454" stroke="#650A85" stroke-width="3.5" stroke-miterlimit="10" stroke-linecap="round" stroke-linejoin="round"/>
<path d="M30.1953 281.454V264.786C30.1953 264.427 30.4878 264.134 30.8468 264.134H39.7276C40.0865 264.134 40.379 264.427 40.379 264.786V281.454" stroke="#650A85" stroke-width="3.5" stroke-miterlimit="10" stroke-linecap="round" stroke-linejoin="round"/>
<path d="M44.8457 281.454V262.478C44.8457 262.119 45.1382 261.826 45.4971 261.826H54.378C54.7369 261.826 55.0294 262.119 55.0294 262.478V281.454" stroke="#650A85" stroke-width="3.5" stroke-miterlimit="10" stroke-linecap="round" stroke-linejoin="round"/>
<path d="M14.5215 258.959L56.1935 248.264" stroke="#650A85" stroke-width="4" stroke-miterlimit="10" stroke-linecap="round" stroke-linejoin="round"/>
<path d="M48.6875 244L56.405 248.071L51.9713 255.892" stroke="#650A85" stroke-width="4" stroke-miterlimit="10" stroke-linecap="round" stroke-linejoin="round"/>
<path d="M60.4808 295.67H12.5204C6.89014 295.67 2.33008 291.107 2.33008 285.48V242.526C2.33008 236.893 6.89014 232.33 12.5204 232.33H60.4808C66.1045 232.33 70.6712 236.893 70.6712 242.526V285.48C70.6712 291.107 66.1111 295.67 60.4808 295.67Z" stroke="#650A85" stroke-width="4" stroke-miterlimit="10" stroke-linecap="round" stroke-linejoin="round"/>
<path d="M594.156 91.6696H544.845C539.056 91.6696 534.367 87.1069 534.367 81.4799V38.5264C534.367 32.8928 539.056 28.3301 544.845 28.3301H594.156C599.938 28.3301 604.633 32.8928 604.633 38.5264V81.4799C604.633 87.1069 599.945 91.6696 594.156 91.6696Z" stroke="#650A85" stroke-width="4" stroke-miterlimit="10" stroke-linecap="round" stroke-linejoin="round"/>
<path d="M569.798 65.6036C566.647 65.6036 564.098 63.1161 564.098 60.0565C564.098 59.1339 564.328 58.2646 564.737 57.5" stroke="#650A85" stroke-width="3.5" stroke-miterlimit="10" stroke-linecap="round" stroke-linejoin="round"/>
<path d="M577.5 48.0275C575.267 46.6693 572.628 45.8828 569.797 45.8828C561.753 45.8828 555.232 52.2281 555.232 60.0566C555.232 67.885 561.753 74.2303 569.797 74.2303C577.841 74.2303 584.361 67.885 584.361 60.0566C584.361 59.1846 584.279 58.3298 584.123 57.5" stroke="#650A85" stroke-width="3.5" stroke-miterlimit="10" stroke-linecap="round"/>
<path d="M583.194 42.1508C579.436 39.484 574.804 37.9082 569.798 37.9082C557.229 37.9082 547.039 47.8252 547.039 60.0567C547.039 72.2883 557.229 82.2053 569.798 82.2053C582.367 82.2053 592.557 72.2883 592.557 60.0567C592.557 58.0289 592.279 56.0646 591.755 54.1994" stroke="#650A85" stroke-width="3.5" stroke-miterlimit="10" stroke-linecap="round"/>
<path d="M592.556 44.1069L569.756 60.1031" stroke="#650A85" stroke-width="4" stroke-miterlimit="10" stroke-linecap="round" stroke-linejoin="round"/>
<path d="M571.225 51.0908L569.756 60.1897" stroke="#650A85" stroke-width="4" stroke-miterlimit="10" stroke-linecap="round" stroke-linejoin="round"/>
<path d="M578.73 61.3667L569.756 60.1895" stroke="#650A85" stroke-width="4" stroke-miterlimit="10" stroke-linecap="round" stroke-linejoin="round"/>
<g clip-path="url(#clip0_0_1)">
<path d="M598.372 253.432H472.629C469.289 253.432 466.58 250.742 466.58 247.426V166.574C466.58 163.257 469.289 160.568 472.629 160.568H598.372C601.712 160.568 604.421 163.257 604.421 166.574V247.426C604.421 250.742 601.712 253.432 598.372 253.432Z" stroke="#650A85" stroke-width="5" stroke-miterlimit="10"/>
<path d="M469.707 162.567L520.44 210.591H550.845L601.293 162.567" stroke="#650A85" stroke-width="5" stroke-miterlimit="10"/>
<path d="M520.44 210.591L469.707 251.425" stroke="#650A85" stroke-width="5" stroke-miterlimit="10"/>
<path d="M550.846 210.591L601.294 251.425" stroke="#650A85" stroke-width="5" stroke-miterlimit="10"/>
</g>
<rect x="73.5" y="2.5" width="341" height="193" rx="16.5" stroke="#650A85" stroke-width="5"/>
<rect x="93" y="23" width="87" height="68" rx="10" stroke="#650A85" stroke-width="5"/>
<rect x="93" y="107" width="87" height="70" rx="10" stroke="#650A85" stroke-width="5"/>
<rect x="202" y="23" width="86" height="68" rx="10" stroke="#650A85" stroke-width="5"/>
<rect x="202" y="107" width="86" height="70" rx="10" stroke="#650A85" stroke-width="5"/>
<rect x="310" y="23" width="87" height="68" rx="10" stroke="#650A85" stroke-width="5"/>
<rect x="310" y="107" width="87" height="70" rx="10" stroke="#650A85" stroke-width="5"/>
<g filter="url(#filter0_d_0_1)">
<path d="M491.999 92.7559V283.565C491.999 290.957 486.421 296.988 479.625 296.988H135.517C128.732 296.988 123.143 290.957 123.143 283.565V92.7559" fill="#F5F5F5"/>
<path d="M492 92.7557H123V64.0932C123 54.1449 131.146 46 141.107 46H473.893C483.854 46 492 54.1449 492 64.1052V92.7557Z" fill="#040059"/>
<path d="M159.357 75.5699C162.774 75.5699 165.544 72.8002 165.544 69.3836C165.544 65.967 162.774 63.1973 159.357 63.1973C155.94 63.1973 153.17 65.967 153.17 69.3836C153.17 72.8002 155.94 75.5699 159.357 75.5699Z" fill="#FF0D4D"/>
<path d="M181.98 75.5699C185.397 75.5699 188.167 72.8002 188.167 69.3836C188.167 65.967 185.397 63.1973 181.98 63.1973C178.563 63.1973 175.793 65.967 175.793 69.3836C175.793 72.8002 178.563 75.5699 181.98 75.5699Z" fill="#F5F5F5"/>
<path d="M204.459 75.5699C207.876 75.5699 210.646 72.8002 210.646 69.3836C210.646 65.967 207.876 63.1973 204.459 63.1973C201.042 63.1973 198.271 65.967 198.271 69.3836C198.271 72.8002 201.042 75.5699 204.459 75.5699Z" fill="#FF0D4D"/>
<path d="M208.234 132.286C217.431 132.286 225.433 133.648 232.516 136.514C239.455 139.38 245.642 143.453 250.767 149.03L238.392 165.618C234.164 161.092 229.494 157.772 224.669 155.515C219.688 153.258 214.11 152.195 207.923 152.195C204.304 152.195 201.282 152.648 199.025 153.401C196.767 154.153 195.107 155.359 194.044 156.721C192.993 158.082 192.539 159.742 192.539 161.546C192.539 163.66 193.447 165.463 195.406 166.824C197.365 168.329 200.53 169.535 204.913 170.443L221.504 174.217C231.31 176.474 238.548 179.794 243.075 184.177C247.601 188.548 249.859 194.436 249.859 201.673C249.859 208.612 248.043 214.5 244.424 219.325C240.805 224.149 235.98 227.768 229.637 230.181C223.307 232.593 216.212 233.799 208.222 233.799C201.736 233.799 195.394 233.047 189.362 231.685C183.33 230.181 178.051 228.21 173.226 225.499C168.4 222.788 164.471 219.767 161.162 216.303L173.536 199.106C175.949 201.972 179.114 204.54 182.733 206.797C186.352 209.054 190.282 210.869 194.653 212.075C199.025 213.437 203.408 214.034 207.78 214.034C211.256 214.034 214.11 213.735 216.535 212.983C218.792 212.231 220.608 211.168 221.659 209.818C222.71 208.457 223.319 206.797 223.319 204.838C223.319 202.724 222.567 200.921 221.062 199.559C219.557 198.055 216.69 196.848 212.617 195.941L194.367 191.868C188.789 190.507 183.808 188.847 179.58 186.745C175.208 184.631 171.888 181.765 169.32 178.146C166.907 174.528 165.546 170.001 165.546 164.567C165.546 158.381 167.206 152.947 170.67 148.122C173.99 143.297 178.971 139.523 185.301 136.657C191.787 133.636 199.491 132.286 208.234 132.286Z" fill="#FF0D4D"/>
<path d="M266.008 232.139V133.791H342.641V153.556H291.652V173.465H332.238V192.167H291.652V212.231H344.6V231.996L266.008 232.139Z" fill="#FF0D4D"/>
<path d="M404.654 130.77C376.442 130.77 353.51 153.7 353.51 181.908C353.51 210.117 376.442 233.047 404.654 233.047C410.686 233.047 416.419 231.996 421.698 230.181C428.638 227.768 434.825 223.851 439.949 218.871C449.755 209.52 455.787 196.395 455.787 181.92C455.787 153.7 432.866 130.77 404.654 130.77ZM434.67 183.867C434.67 200.455 421.245 213.879 404.654 213.879C388.064 213.879 374.639 200.455 374.639 183.867C374.639 167.278 388.064 153.855 404.654 153.855C421.245 153.855 434.67 167.278 434.67 183.867Z" fill="#FF0D4D"/>
<path d="M459.263 265.316L455.489 267.884C452.025 270.296 447.188 269.245 444.775 265.626L421.09 228.676C427.731 226.263 433.762 222.489 438.886 217.665L461.365 254.926C463.635 258.533 462.584 263.059 459.263 265.316Z" fill="#FF0D4D"/>
<path d="M418.078 231.076L417.924 230.933" stroke="#040059" stroke-miterlimit="10"/>
<path d="M435.277 220.376L434.967 219.922" stroke="#040059" stroke-miterlimit="10"/>
<path d="M199.489 129.265C208.686 129.265 216.689 130.626 223.772 133.492C230.711 136.359 236.898 140.431 242.022 146.008L229.66 162.597C225.432 158.07 220.762 154.75 215.936 152.493C210.956 150.236 205.378 149.173 199.191 149.173C195.572 149.173 192.55 149.627 190.292 150.379C188.035 151.132 186.375 152.338 185.312 153.699C184.261 155.061 183.807 156.721 183.807 158.524C183.807 160.638 184.715 162.442 186.673 163.803C188.632 165.308 191.797 166.514 196.181 167.422L212.771 171.196C222.577 173.453 229.815 176.773 234.342 181.156C238.869 185.527 241.126 191.415 241.126 198.652C241.126 205.591 239.311 211.478 235.692 216.303C232.073 221.128 227.247 224.747 220.905 227.159C214.575 229.571 207.48 230.778 199.489 230.778C193.004 230.778 186.661 230.025 180.63 228.664C174.598 227.159 169.319 225.189 164.493 222.478C159.668 219.767 155.738 216.745 152.43 213.282L164.804 196.084C167.216 198.95 170.382 201.518 174.001 203.775C177.62 206.032 181.549 207.848 185.921 209.054C190.292 210.415 194.676 211.013 199.047 211.013C202.523 211.013 205.378 210.714 207.802 209.962C210.06 209.209 211.875 208.146 212.926 206.797C213.977 205.435 214.587 203.775 214.587 201.817C214.587 199.703 213.834 197.899 212.329 196.538C210.824 195.033 207.958 193.827 203.885 192.919L185.634 188.847C180.056 187.485 175.076 185.825 170.847 183.723C166.476 181.61 163.155 178.743 160.587 175.125C158.175 171.506 156.813 166.98 156.813 161.546C156.813 155.359 158.473 149.926 161.937 145.101C165.258 140.276 170.238 136.502 176.569 133.636C183.042 130.626 190.579 129.265 199.489 129.265Z" fill="#040059"/>
<path d="M257.107 229.118V130.77H333.741V150.535H282.751V170.443H323.337V189.146H282.751V209.209H335.699V228.974L257.107 229.118Z" fill="#040059"/>
<path d="M395.898 127.76C367.687 127.76 344.754 150.69 344.754 178.898C344.754 207.107 367.687 230.037 395.898 230.037C401.93 230.037 407.663 228.986 412.943 227.171C419.882 224.758 426.069 220.841 431.193 215.861C440.999 206.51 447.031 193.385 447.031 178.91C447.043 150.678 424.11 127.76 395.898 127.76ZM425.771 180.845C425.771 197.434 412.345 210.857 395.755 210.857C379.165 210.857 365.74 197.434 365.74 180.845C365.74 164.257 379.165 150.833 395.755 150.833C412.345 150.988 425.771 164.412 425.771 180.845Z" fill="#040059"/>
<path d="M450.505 262.306L446.731 264.874C443.255 267.286 438.43 266.235 436.017 262.617L412.332 225.666C418.973 223.254 425.005 219.48 430.129 214.655L452.607 251.916C454.889 255.666 453.826 260.037 450.505 262.306Z" fill="#040059"/>
</g>
<defs>
<filter id="filter0_d_0_1" x="103" y="26" width="409" height="291" filterUnits="userSpaceOnUse" color-interpolation-filters="sRGB">
<feFlood flood-opacity="0" result="BackgroundImageFix"/>
<feColorMatrix in="SourceAlpha" type="matrix" values="0 0 0 0 0 0 0 0 0 0 0 0 0 0 0 0 0 0 127 0" result="hardAlpha"/>
<feOffset/>
<feGaussianBlur stdDeviation="10"/>
<feComposite in2="hardAlpha" operator="out"/>
<feColorMatrix type="matrix" values="0 0 0 0 0.0156863 0 0 0 0 0 0 0 0 0 0.34902 0 0 0 0.35 0"/>
<feBlend mode="normal" in2="BackgroundImageFix" result="effect1_dropShadow_0_1"/>
<feBlend mode="normal" in="SourceGraphic" in2="effect1_dropShadow_0_1" result="shape"/>
</filter>
<clipPath id="clip0_0_1">
<rect width="141" height="96" fill="white" transform="translate(465 159)"/>
</clipPath>
</defs>
</svg>
