<svg width="668" height="513" viewBox="0 0 668 513" fill="none" xmlns="http://www.w3.org/2000/svg">
<rect x="35" y="396" width="75" height="58" stroke="black" stroke-width="6"/>
<path d="M125.989 64H77.0109C72.0545 64 68 59.929 68 54.9524V11.0476C68 6.071 72.0545 2 77.0109 2H125.989C130.946 2 135 6.071 135 11.0476V54.9524C135 59.929 130.946 64 125.989 64Z" stroke="#650A85" stroke-width="4" stroke-miterlimit="10"/>
<path d="M626.989 504H578.011C573.054 504 569 499.929 569 494.952V451.048C569 446.071 573.054 442 578.011 442H626.989C631.946 442 636 446.071 636 451.048V494.952C636 499.929 631.946 504 626.989 504Z" stroke="#650A85" stroke-width="4" stroke-miterlimit="10"/>
<path d="M602.239 494.13C599.125 494.13 596.272 493.649 593.678 492.688C591.083 491.725 588.841 490.342 586.95 488.537C585.058 486.732 583.594 484.53 582.556 481.931C581.519 479.332 581 476.38 581 473.072C581 469.831 581.553 466.862 582.658 464.162C583.762 461.462 585.319 459.125 587.328 457.151C589.337 455.177 591.696 453.658 594.407 452.595C597.118 451.532 600.08 451 603.294 451C606.339 451 609.084 451.481 611.529 452.442C613.973 453.405 616.065 454.763 617.806 456.518C619.546 458.273 620.876 460.341 621.797 462.719C622.717 465.098 623.177 467.689 623.177 470.491C623.177 472.955 622.867 475.099 622.248 476.92C621.628 478.743 620.792 480.246 619.737 481.425C618.683 482.607 617.52 483.484 616.248 484.058C614.976 484.631 613.704 484.918 612.432 484.918C610.29 484.918 608.691 484.379 607.637 483.299C606.582 482.22 606.105 480.817 606.206 479.097C605.469 480.717 604.381 481.992 602.942 482.92C601.503 483.849 599.98 484.311 598.374 484.311C596.801 484.311 595.403 483.915 594.181 483.121C592.96 482.329 592.005 481.207 591.319 479.754C590.633 478.303 590.29 476.581 590.29 474.59C590.29 472.802 590.557 471.098 591.093 469.477C591.627 467.857 592.382 466.413 593.352 465.149C594.323 463.884 595.486 462.879 596.842 462.136C598.198 461.394 599.711 461.022 601.386 461.022C602.491 461.022 603.511 461.225 604.449 461.63C605.386 462.035 606.189 462.626 606.859 463.402C607.528 464.179 607.981 465.157 608.216 466.339L609.37 461.479H615.345L611.829 476.717C611.762 477.089 611.695 477.443 611.628 477.78C611.56 478.117 611.528 478.439 611.528 478.743C611.528 479.653 611.753 480.287 612.205 480.642C612.656 480.996 613.217 481.174 613.887 481.174C614.924 481.174 615.877 480.793 616.749 480.034C617.62 479.274 618.331 478.119 618.883 476.566C619.436 475.014 619.712 473.039 619.712 470.643C619.712 468.246 619.317 466.045 618.531 464.037C617.744 462.03 616.63 460.315 615.191 458.899C613.752 457.481 612.036 456.385 610.044 455.608C608.052 454.831 605.834 454.444 603.39 454.444C600.68 454.444 598.202 454.883 595.96 455.761C593.716 456.638 591.776 457.887 590.135 459.507C588.495 461.126 587.231 463.084 586.344 465.38C585.456 467.675 585.013 470.239 585.013 473.075C585.013 475.944 585.456 478.467 586.344 480.644C587.23 482.821 588.477 484.65 590.085 486.136C591.691 487.621 593.549 488.744 595.658 489.503C597.767 490.262 600.027 490.643 602.437 490.643C604.981 490.643 607.032 490.322 608.588 489.68C610.144 489.039 611.509 488.33 612.681 487.554L614.438 490.49C613.535 491.131 612.522 491.731 611.4 492.287C610.278 492.844 608.981 493.291 607.509 493.628C606.039 493.962 604.281 494.13 602.239 494.13ZM600.885 479.702C602.057 479.702 603.094 479.271 603.999 478.411C604.903 477.551 605.605 476.437 606.108 475.07C606.61 473.702 606.861 472.26 606.861 470.742C606.861 469.696 606.694 468.801 606.36 468.059C606.025 467.317 605.531 466.742 604.878 466.337C604.225 465.932 603.447 465.729 602.543 465.729C601.571 465.729 600.702 465.974 599.932 466.462C599.162 466.952 598.502 467.619 597.948 468.462C597.395 469.306 596.976 470.243 596.694 471.271C596.409 472.302 596.266 473.357 596.266 474.435C596.266 475.549 596.442 476.494 596.794 477.271C597.145 478.048 597.673 478.647 598.376 479.068C599.077 479.492 599.913 479.702 600.885 479.702Z" fill="#650A85"/>
<g filter="url(#filter0_d_0_1)">
<path d="M647.316 102.396V374.238C647.316 384.733 639.349 393.385 629.551 393.385H138.386C128.588 393.4 120.621 384.748 120.621 374.238V102.396" fill="white"/>
<path d="M647.316 102.548H120.621V61.818C120.621 47.6371 132.281 36 146.49 36H621.447C635.656 36 647.316 47.6371 647.316 61.818V102.548Z" fill="#040059"/>
<path d="M172.513 78.1461C177.384 78.1461 181.334 74.2044 181.334 69.3421C181.334 64.4798 177.384 60.5381 172.513 60.5381C167.641 60.5381 163.691 64.4798 163.691 69.3421C163.691 74.2044 167.641 78.1461 172.513 78.1461Z" fill="#FF0D4D"/>
<path d="M204.774 78.1461C209.646 78.1461 213.596 74.2044 213.596 69.3421C213.596 64.4798 209.646 60.5381 204.774 60.5381C199.903 60.5381 195.953 64.4798 195.953 69.3421C195.953 74.2044 199.903 78.1461 204.774 78.1461Z" fill="#F5F5F5"/>
<path d="M236.899 78.1461C241.771 78.1461 245.721 74.2044 245.721 69.3421C245.721 64.4798 241.771 60.5381 236.899 60.5381C232.028 60.5381 228.078 64.4798 228.078 69.3421C228.078 74.2044 232.028 78.1461 236.899 78.1461Z" fill="#FF0D4D"/>
<rect x="563" y="142" width="26" height="18" rx="7" fill="#FF0D4D"/>
<rect x="530" y="142" width="26" height="18" rx="7" fill="#FF0D4D"/>
<rect x="495" y="142" width="26" height="18" rx="7" fill="#FF0D4D"/>
</g>
<path d="M317 152H384" stroke="#040059" stroke-width="4" stroke-miterlimit="10" stroke-linecap="round" stroke-linejoin="round"/>
<path d="M317 199H384" stroke="#040059" stroke-width="4" stroke-miterlimit="10" stroke-linecap="round" stroke-linejoin="round"/>
<path d="M403 199L585 199" stroke="#040059" stroke-width="4" stroke-miterlimit="10" stroke-linecap="round" stroke-linejoin="round"/>
<path d="M317 235H384" stroke="#040059" stroke-width="4" stroke-miterlimit="10" stroke-linecap="round" stroke-linejoin="round"/>
<path d="M403 235L585 235" stroke="#040059" stroke-width="4" stroke-miterlimit="10" stroke-linecap="round" stroke-linejoin="round"/>
<path d="M585 179H518" stroke="#040059" stroke-width="4" stroke-miterlimit="10" stroke-linecap="round" stroke-linejoin="round"/>
<path d="M499 179L317 179" stroke="#040059" stroke-width="4" stroke-miterlimit="10" stroke-linecap="round" stroke-linejoin="round"/>
<path d="M585 216H518" stroke="#040059" stroke-width="4" stroke-miterlimit="10" stroke-linecap="round" stroke-linejoin="round"/>
<path d="M499 216L317 216" stroke="#040059" stroke-width="4" stroke-miterlimit="10" stroke-linecap="round" stroke-linejoin="round"/>
<path d="M526.653 472.008H257.928C250.789 472.008 245 466.216 245 459.073V284.935C245 277.792 250.789 272 257.928 272H526.653C533.792 272 539.581 277.792 539.581 284.935V459.073C539.581 466.216 533.792 472.008 526.653 472.008Z" fill="#040059"/>
<path d="M248.812 273.272L359.305 379.958H425.525L535.398 273.272" fill="#040059"/>
<path d="M248.812 273.272L359.305 379.958H425.525L535.398 273.272" stroke="white" stroke-width="8" stroke-miterlimit="10"/>
<path d="M359.68 379.957L247.766 470.953" stroke="white" stroke-width="8" stroke-miterlimit="10"/>
<path d="M425.574 379.957L535.397 469.907" stroke="white" stroke-width="8" stroke-miterlimit="10"/>
<path d="M242.5 229C268.181 229 289 208.181 289 182.5C289 156.819 268.181 136 242.5 136C216.819 136 196 156.819 196 182.5C196 208.181 216.819 229 242.5 229Z" fill="#FF0D4D"/>
<path d="M242.501 185.723C251.4 185.723 258.614 178.508 258.614 169.609C258.614 160.71 251.4 153.495 242.501 153.495C233.601 153.495 226.387 160.71 226.387 169.609C226.387 178.508 233.601 185.723 242.501 185.723Z" fill="#F5F5F5"/>
<path d="M242.96 222.555C258.216 222.555 270.583 215.34 270.583 206.441C270.583 197.542 258.216 190.327 242.96 190.327C227.704 190.327 215.336 197.542 215.336 206.441C215.336 215.34 227.704 222.555 242.96 222.555Z" fill="#F5F5F5"/>
<g filter="url(#filter1_d_0_1)">
<path d="M11 448.337V484.853C11 496.227 20.29 505.545 31.6601 505.545H187.359C198.719 505.545 208.009 496.236 208.009 484.853V448.337H11Z" fill="#040059"/>
<path d="M208 180.236V453.27H11V180.236C11 178.209 11.2918 176.247 11.8471 174.389C14.379 165.835 22.323 159.545 31.6601 159.545H187.359C198.71 159.545 208 168.853 208 180.236Z" fill="white"/>
<path d="M135.97 182.311H78.8373C74.31 182.311 70.6016 178.595 70.6016 174.059C70.6016 169.522 74.31 165.807 78.8373 165.807H135.97C140.498 165.807 144.206 169.522 144.206 174.059C144.206 178.595 140.498 182.311 135.97 182.311Z" fill="#040059"/>
<path d="M123.816 479.185C123.816 487.107 117.406 493.53 109.5 493.53C101.593 493.53 95.1836 487.107 95.1836 479.185C95.1836 471.263 101.593 464.841 109.5 464.841C117.406 464.841 123.816 471.263 123.816 479.185Z" fill="#FF0D4D"/>
<path d="M41.8633 209H100.502" stroke="#040059" stroke-width="4" stroke-miterlimit="10" stroke-linecap="round" stroke-linejoin="round"/>
<path d="M41.8633 221.553H185.655" stroke="#040059" stroke-width="4" stroke-miterlimit="10" stroke-linecap="round" stroke-linejoin="round"/>
<path d="M37.957 411.358H185.655" stroke="#040059" stroke-width="4" stroke-miterlimit="10" stroke-linecap="round" stroke-linejoin="round"/>
<path d="M37.957 426.938H185.655" stroke="#040059" stroke-width="4" stroke-miterlimit="10" stroke-linecap="round" stroke-linejoin="round"/>
<path d="M37 379C37 375.134 40.134 372 44 372H92C95.866 372 99 375.134 99 379V387C99 390.866 95.866 394 92 394H44C40.134 394 37 390.866 37 387V379Z" fill="#FF0D4D"/>
<rect x="34" y="307" width="152" height="51" rx="7" fill="#D9D9D9"/>
<rect x="34" y="274" width="152" height="22" rx="7" fill="#D9D9D9"/>
<rect x="34" y="243" width="152" height="22" rx="7" fill="#D9D9D9"/>
</g>
<path d="M84.5484 35.8927L79.0158 33.045C77.4726 32.2507 77.6043 30.0025 79.2296 29.3938L123 13M84.5484 35.8927L123 13M84.5484 35.8927L86.3304 46.1C86.6495 47.9276 89.0692 48.3735 90.0188 46.7797L92.8065 42.1009M123 13L92.8065 42.1009M123 13L106.339 51.3619C105.784 52.6402 104.124 52.973 103.119 52.0075L92.8065 42.1009" stroke="#650A85" stroke-width="3.5"/>
<defs>
<filter id="filter0_d_0_1" x="100.621" y="16" width="566.695" height="397.4" filterUnits="userSpaceOnUse" color-interpolation-filters="sRGB">
<feFlood flood-opacity="0" result="BackgroundImageFix"/>
<feColorMatrix in="SourceAlpha" type="matrix" values="0 0 0 0 0 0 0 0 0 0 0 0 0 0 0 0 0 0 127 0" result="hardAlpha"/>
<feOffset/>
<feGaussianBlur stdDeviation="10"/>
<feComposite in2="hardAlpha" operator="out"/>
<feColorMatrix type="matrix" values="0 0 0 0 0.0156863 0 0 0 0 0 0 0 0 0 0.34902 0 0 0 0.35 0"/>
<feBlend mode="normal" in2="BackgroundImageFix" result="effect1_dropShadow_0_1"/>
<feBlend mode="normal" in="SourceGraphic" in2="effect1_dropShadow_0_1" result="shape"/>
</filter>
<filter id="filter1_d_0_1" x="0" y="146.545" width="217.008" height="366.455" filterUnits="userSpaceOnUse" color-interpolation-filters="sRGB">
<feFlood flood-opacity="0" result="BackgroundImageFix"/>
<feColorMatrix in="SourceAlpha" type="matrix" values="0 0 0 0 0 0 0 0 0 0 0 0 0 0 0 0 0 0 127 0" result="hardAlpha"/>
<feOffset dx="-1" dy="-3"/>
<feGaussianBlur stdDeviation="5"/>
<feComposite in2="hardAlpha" operator="out"/>
<feColorMatrix type="matrix" values="0 0 0 0 0 0 0 0 0 0 0 0 0 0 0 0 0 0 0.2 0"/>
<feBlend mode="normal" in2="BackgroundImageFix" result="effect1_dropShadow_0_1"/>
<feBlend mode="normal" in="SourceGraphic" in2="effect1_dropShadow_0_1" result="shape"/>
</filter>
</defs>
</svg>
